<?xml version="1.0" encoding="utf-8" standalone="no"?>
<!DOCTYPE svg PUBLIC "-//W3C//DTD SVG 1.1//EN"
  "http://www.w3.org/Graphics/SVG/1.1/DTD/svg11.dtd">
<svg xmlns:xlink="http://www.w3.org/1999/xlink" width="856.806875pt" height="424.403034pt" viewBox="0 0 856.806875 424.403034" xmlns="http://www.w3.org/2000/svg" version="1.1">
 <metadata>
  <rdf:RDF xmlns:dc="http://purl.org/dc/elements/1.1/" xmlns:cc="http://creativecommons.org/ns#" xmlns:rdf="http://www.w3.org/1999/02/22-rdf-syntax-ns#">
   <cc:Work>
    <dc:type rdf:resource="http://purl.org/dc/dcmitype/StillImage"/>
    <dc:date>2026-02-11T18:53:23.376155</dc:date>
    <dc:format>image/svg+xml</dc:format>
    <dc:creator>
     <cc:Agent>
      <dc:title>Matplotlib v3.10.8, https://matplotlib.org/</dc:title>
     </cc:Agent>
    </dc:creator>
   </cc:Work>
  </rdf:RDF>
 </metadata>
 <defs>
  <style type="text/css">*{stroke-linejoin: round; stroke-linecap: butt}</style>
 </defs>
 <g id="figure_1">
  <g id="patch_1">
   <path d="M 0 424.403034 
L 856.806875 424.403034 
L 856.806875 0 
L 0 0 
z
" style="fill: #ffffff"/>
  </g>
  <g id="axes_1">
   <g id="patch_2">
    <path d="M 40.583125 362.814442 
L 849.606875 362.814442 
L 849.606875 23.391562 
L 40.583125 23.391562 
z
" style="fill: #ffffff"/>
   </g>
   <g id="matplotlib.axis_1">
    <g id="xtick_1">
     <g id="line2d_1">
      <path d="M 77.356932 362.814442 
L 77.356932 23.391562 
" clip-path="url(#p89201456d1)" style="fill: none; stroke: #cccccc; stroke-width: 0.8; stroke-linecap: round"/>
     </g>
     <g id="text_1">
      <!-- 2020-01 -->
      <g style="fill: #262626" transform="translate(66.211161 400.823284) rotate(-45) scale(0.1 -0.1)">
       <defs>
        <path id="ArialMT-32" d="M 3222 541 
L 3222 0 
L 194 0 
Q 188 203 259 391 
Q 375 700 629 1000 
Q 884 1300 1366 1694 
Q 2113 2306 2375 2664 
Q 2638 3022 2638 3341 
Q 2638 3675 2398 3904 
Q 2159 4134 1775 4134 
Q 1369 4134 1125 3890 
Q 881 3647 878 3216 
L 300 3275 
Q 359 3922 746 4261 
Q 1134 4600 1788 4600 
Q 2447 4600 2831 4234 
Q 3216 3869 3216 3328 
Q 3216 3053 3103 2787 
Q 2991 2522 2730 2228 
Q 2469 1934 1863 1422 
Q 1356 997 1212 845 
Q 1069 694 975 541 
L 3222 541 
z
" transform="scale(0.015625)"/>
        <path id="ArialMT-30" d="M 266 2259 
Q 266 3072 433 3567 
Q 600 4063 929 4331 
Q 1259 4600 1759 4600 
Q 2128 4600 2406 4451 
Q 2684 4303 2865 4023 
Q 3047 3744 3150 3342 
Q 3253 2941 3253 2259 
Q 3253 1453 3087 958 
Q 2922 463 2592 192 
Q 2263 -78 1759 -78 
Q 1097 -78 719 397 
Q 266 969 266 2259 
z
M 844 2259 
Q 844 1131 1108 757 
Q 1372 384 1759 384 
Q 2147 384 2411 759 
Q 2675 1134 2675 2259 
Q 2675 3391 2411 3762 
Q 2147 4134 1753 4134 
Q 1366 4134 1134 3806 
Q 844 3388 844 2259 
z
" transform="scale(0.015625)"/>
        <path id="ArialMT-2d" d="M 203 1375 
L 203 1941 
L 1931 1941 
L 1931 1375 
L 203 1375 
z
" transform="scale(0.015625)"/>
        <path id="ArialMT-31" d="M 2384 0 
L 1822 0 
L 1822 3584 
Q 1619 3391 1289 3197 
Q 959 3003 697 2906 
L 697 3450 
Q 1169 3672 1522 3987 
Q 1875 4303 2022 4600 
L 2384 4600 
L 2384 0 
z
" transform="scale(0.015625)"/>
       </defs>
       <use xlink:href="#ArialMT-32"/>
       <use xlink:href="#ArialMT-30" transform="translate(55.615234 0)"/>
       <use xlink:href="#ArialMT-32" transform="translate(111.230469 0)"/>
       <use xlink:href="#ArialMT-30" transform="translate(166.845703 0)"/>
       <use xlink:href="#ArialMT-2d" transform="translate(222.460938 0)"/>
       <use xlink:href="#ArialMT-30" transform="translate(255.761719 0)"/>
       <use xlink:href="#ArialMT-31" transform="translate(311.376953 0)"/>
      </g>
     </g>
    </g>
    <g id="xtick_2">
     <g id="line2d_2">
      <path d="M 222.313456 362.814442 
L 222.313456 23.391562 
" clip-path="url(#p89201456d1)" style="fill: none; stroke: #cccccc; stroke-width: 0.8; stroke-linecap: round"/>
     </g>
     <g id="text_2">
      <!-- 2021-01 -->
      <g style="fill: #262626" transform="translate(211.167686 400.823284) rotate(-45) scale(0.1 -0.1)">
       <use xlink:href="#ArialMT-32"/>
       <use xlink:href="#ArialMT-30" transform="translate(55.615234 0)"/>
       <use xlink:href="#ArialMT-32" transform="translate(111.230469 0)"/>
       <use xlink:href="#ArialMT-31" transform="translate(166.845703 0)"/>
       <use xlink:href="#ArialMT-2d" transform="translate(222.460938 0)"/>
       <use xlink:href="#ArialMT-30" transform="translate(255.761719 0)"/>
       <use xlink:href="#ArialMT-31" transform="translate(311.376953 0)"/>
      </g>
     </g>
    </g>
    <g id="xtick_3">
     <g id="line2d_3">
      <path d="M 366.873925 362.814442 
L 366.873925 23.391562 
" clip-path="url(#p89201456d1)" style="fill: none; stroke: #cccccc; stroke-width: 0.8; stroke-linecap: round"/>
     </g>
     <g id="text_3">
      <!-- 2022-01 -->
      <g style="fill: #262626" transform="translate(355.728154 400.823284) rotate(-45) scale(0.1 -0.1)">
       <use xlink:href="#ArialMT-32"/>
       <use xlink:href="#ArialMT-30" transform="translate(55.615234 0)"/>
       <use xlink:href="#ArialMT-32" transform="translate(111.230469 0)"/>
       <use xlink:href="#ArialMT-32" transform="translate(166.845703 0)"/>
       <use xlink:href="#ArialMT-2d" transform="translate(222.460938 0)"/>
       <use xlink:href="#ArialMT-30" transform="translate(255.761719 0)"/>
       <use xlink:href="#ArialMT-31" transform="translate(311.376953 0)"/>
      </g>
     </g>
    </g>
    <g id="xtick_4">
     <g id="line2d_4">
      <path d="M 511.434393 362.814442 
L 511.434393 23.391562 
" clip-path="url(#p89201456d1)" style="fill: none; stroke: #cccccc; stroke-width: 0.8; stroke-linecap: round"/>
     </g>
     <g id="text_4">
      <!-- 2023-01 -->
      <g style="fill: #262626" transform="translate(500.288622 400.823284) rotate(-45) scale(0.1 -0.1)">
       <defs>
        <path id="ArialMT-33" d="M 269 1209 
L 831 1284 
Q 928 806 1161 595 
Q 1394 384 1728 384 
Q 2125 384 2398 659 
Q 2672 934 2672 1341 
Q 2672 1728 2419 1979 
Q 2166 2231 1775 2231 
Q 1616 2231 1378 2169 
L 1441 2663 
Q 1497 2656 1531 2656 
Q 1891 2656 2178 2843 
Q 2466 3031 2466 3422 
Q 2466 3731 2256 3934 
Q 2047 4138 1716 4138 
Q 1388 4138 1169 3931 
Q 950 3725 888 3313 
L 325 3413 
Q 428 3978 793 4289 
Q 1159 4600 1703 4600 
Q 2078 4600 2393 4439 
Q 2709 4278 2876 4000 
Q 3044 3722 3044 3409 
Q 3044 3113 2884 2869 
Q 2725 2625 2413 2481 
Q 2819 2388 3044 2092 
Q 3269 1797 3269 1353 
Q 3269 753 2831 336 
Q 2394 -81 1725 -81 
Q 1122 -81 723 278 
Q 325 638 269 1209 
z
" transform="scale(0.015625)"/>
       </defs>
       <use xlink:href="#ArialMT-32"/>
       <use xlink:href="#ArialMT-30" transform="translate(55.615234 0)"/>
       <use xlink:href="#ArialMT-32" transform="translate(111.230469 0)"/>
       <use xlink:href="#ArialMT-33" transform="translate(166.845703 0)"/>
       <use xlink:href="#ArialMT-2d" transform="translate(222.460938 0)"/>
       <use xlink:href="#ArialMT-30" transform="translate(255.761719 0)"/>
       <use xlink:href="#ArialMT-31" transform="translate(311.376953 0)"/>
      </g>
     </g>
    </g>
    <g id="xtick_5">
     <g id="line2d_5">
      <path d="M 655.994861 362.814442 
L 655.994861 23.391562 
" clip-path="url(#p89201456d1)" style="fill: none; stroke: #cccccc; stroke-width: 0.8; stroke-linecap: round"/>
     </g>
     <g id="text_5">
      <!-- 2024-01 -->
      <g style="fill: #262626" transform="translate(644.849091 400.823284) rotate(-45) scale(0.1 -0.1)">
       <defs>
        <path id="ArialMT-34" d="M 2069 0 
L 2069 1097 
L 81 1097 
L 81 1613 
L 2172 4581 
L 2631 4581 
L 2631 1613 
L 3250 1613 
L 3250 1097 
L 2631 1097 
L 2631 0 
L 2069 0 
z
M 2069 1613 
L 2069 3678 
L 634 1613 
L 2069 1613 
z
" transform="scale(0.015625)"/>
       </defs>
       <use xlink:href="#ArialMT-32"/>
       <use xlink:href="#ArialMT-30" transform="translate(55.615234 0)"/>
       <use xlink:href="#ArialMT-32" transform="translate(111.230469 0)"/>
       <use xlink:href="#ArialMT-34" transform="translate(166.845703 0)"/>
       <use xlink:href="#ArialMT-2d" transform="translate(222.460938 0)"/>
       <use xlink:href="#ArialMT-30" transform="translate(255.761719 0)"/>
       <use xlink:href="#ArialMT-31" transform="translate(311.376953 0)"/>
      </g>
     </g>
    </g>
    <g id="xtick_6">
     <g id="line2d_6">
      <path d="M 800.951386 362.814442 
L 800.951386 23.391562 
" clip-path="url(#p89201456d1)" style="fill: none; stroke: #cccccc; stroke-width: 0.8; stroke-linecap: round"/>
     </g>
     <g id="text_6">
      <!-- 2025-01 -->
      <g style="fill: #262626" transform="translate(789.805615 400.823284) rotate(-45) scale(0.1 -0.1)">
       <defs>
        <path id="ArialMT-35" d="M 266 1200 
L 856 1250 
Q 922 819 1161 601 
Q 1400 384 1738 384 
Q 2144 384 2425 690 
Q 2706 997 2706 1503 
Q 2706 1984 2436 2262 
Q 2166 2541 1728 2541 
Q 1456 2541 1237 2417 
Q 1019 2294 894 2097 
L 366 2166 
L 809 4519 
L 3088 4519 
L 3088 3981 
L 1259 3981 
L 1013 2750 
Q 1425 3038 1878 3038 
Q 2478 3038 2890 2622 
Q 3303 2206 3303 1553 
Q 3303 931 2941 478 
Q 2500 -78 1738 -78 
Q 1113 -78 717 272 
Q 322 622 266 1200 
z
" transform="scale(0.015625)"/>
       </defs>
       <use xlink:href="#ArialMT-32"/>
       <use xlink:href="#ArialMT-30" transform="translate(55.615234 0)"/>
       <use xlink:href="#ArialMT-32" transform="translate(111.230469 0)"/>
       <use xlink:href="#ArialMT-35" transform="translate(166.845703 0)"/>
       <use xlink:href="#ArialMT-2d" transform="translate(222.460938 0)"/>
       <use xlink:href="#ArialMT-30" transform="translate(255.761719 0)"/>
       <use xlink:href="#ArialMT-31" transform="translate(311.376953 0)"/>
      </g>
     </g>
    </g>
    <g id="text_7">
     <!-- Window Start Date -->
     <g style="fill: #262626" transform="translate(395.078438 414.818034) scale(0.12 -0.12)">
      <defs>
       <path id="ArialMT-57" d="M 1294 0 
L 78 4581 
L 700 4581 
L 1397 1578 
Q 1509 1106 1591 641 
Q 1766 1375 1797 1488 
L 2669 4581 
L 3400 4581 
L 4056 2263 
Q 4303 1400 4413 641 
Q 4500 1075 4641 1638 
L 5359 4581 
L 5969 4581 
L 4713 0 
L 4128 0 
L 3163 3491 
Q 3041 3928 3019 4028 
Q 2947 3713 2884 3491 
L 1913 0 
L 1294 0 
z
" transform="scale(0.015625)"/>
       <path id="ArialMT-69" d="M 425 3934 
L 425 4581 
L 988 4581 
L 988 3934 
L 425 3934 
z
M 425 0 
L 425 3319 
L 988 3319 
L 988 0 
L 425 0 
z
" transform="scale(0.015625)"/>
       <path id="ArialMT-6e" d="M 422 0 
L 422 3319 
L 928 3319 
L 928 2847 
Q 1294 3394 1984 3394 
Q 2284 3394 2536 3286 
Q 2788 3178 2913 3003 
Q 3038 2828 3088 2588 
Q 3119 2431 3119 2041 
L 3119 0 
L 2556 0 
L 2556 2019 
Q 2556 2363 2490 2533 
Q 2425 2703 2258 2804 
Q 2091 2906 1866 2906 
Q 1506 2906 1245 2678 
Q 984 2450 984 1813 
L 984 0 
L 422 0 
z
" transform="scale(0.015625)"/>
       <path id="ArialMT-64" d="M 2575 0 
L 2575 419 
Q 2259 -75 1647 -75 
Q 1250 -75 917 144 
Q 584 363 401 755 
Q 219 1147 219 1656 
Q 219 2153 384 2558 
Q 550 2963 881 3178 
Q 1213 3394 1622 3394 
Q 1922 3394 2156 3267 
Q 2391 3141 2538 2938 
L 2538 4581 
L 3097 4581 
L 3097 0 
L 2575 0 
z
M 797 1656 
Q 797 1019 1065 703 
Q 1334 388 1700 388 
Q 2069 388 2326 689 
Q 2584 991 2584 1609 
Q 2584 2291 2321 2609 
Q 2059 2928 1675 2928 
Q 1300 2928 1048 2622 
Q 797 2316 797 1656 
z
" transform="scale(0.015625)"/>
       <path id="ArialMT-6f" d="M 213 1659 
Q 213 2581 725 3025 
Q 1153 3394 1769 3394 
Q 2453 3394 2887 2945 
Q 3322 2497 3322 1706 
Q 3322 1066 3130 698 
Q 2938 331 2570 128 
Q 2203 -75 1769 -75 
Q 1072 -75 642 372 
Q 213 819 213 1659 
z
M 791 1659 
Q 791 1022 1069 705 
Q 1347 388 1769 388 
Q 2188 388 2466 706 
Q 2744 1025 2744 1678 
Q 2744 2294 2464 2611 
Q 2184 2928 1769 2928 
Q 1347 2928 1069 2612 
Q 791 2297 791 1659 
z
" transform="scale(0.015625)"/>
       <path id="ArialMT-77" d="M 1034 0 
L 19 3319 
L 600 3319 
L 1128 1403 
L 1325 691 
Q 1338 744 1497 1375 
L 2025 3319 
L 2603 3319 
L 3100 1394 
L 3266 759 
L 3456 1400 
L 4025 3319 
L 4572 3319 
L 3534 0 
L 2950 0 
L 2422 1988 
L 2294 2553 
L 1622 0 
L 1034 0 
z
" transform="scale(0.015625)"/>
       <path id="ArialMT-20" transform="scale(0.015625)"/>
       <path id="ArialMT-53" d="M 288 1472 
L 859 1522 
Q 900 1178 1048 958 
Q 1197 738 1509 602 
Q 1822 466 2213 466 
Q 2559 466 2825 569 
Q 3091 672 3220 851 
Q 3350 1031 3350 1244 
Q 3350 1459 3225 1620 
Q 3100 1781 2813 1891 
Q 2628 1963 1997 2114 
Q 1366 2266 1113 2400 
Q 784 2572 623 2826 
Q 463 3081 463 3397 
Q 463 3744 659 4045 
Q 856 4347 1234 4503 
Q 1613 4659 2075 4659 
Q 2584 4659 2973 4495 
Q 3363 4331 3572 4012 
Q 3781 3694 3797 3291 
L 3216 3247 
Q 3169 3681 2898 3903 
Q 2628 4125 2100 4125 
Q 1550 4125 1298 3923 
Q 1047 3722 1047 3438 
Q 1047 3191 1225 3031 
Q 1400 2872 2139 2705 
Q 2878 2538 3153 2413 
Q 3553 2228 3743 1945 
Q 3934 1663 3934 1294 
Q 3934 928 3725 604 
Q 3516 281 3123 101 
Q 2731 -78 2241 -78 
Q 1619 -78 1198 103 
Q 778 284 539 648 
Q 300 1013 288 1472 
z
" transform="scale(0.015625)"/>
       <path id="ArialMT-74" d="M 1650 503 
L 1731 6 
Q 1494 -44 1306 -44 
Q 1000 -44 831 53 
Q 663 150 594 308 
Q 525 466 525 972 
L 525 2881 
L 113 2881 
L 113 3319 
L 525 3319 
L 525 4141 
L 1084 4478 
L 1084 3319 
L 1650 3319 
L 1650 2881 
L 1084 2881 
L 1084 941 
Q 1084 700 1114 631 
Q 1144 563 1211 522 
Q 1278 481 1403 481 
Q 1497 481 1650 503 
z
" transform="scale(0.015625)"/>
       <path id="ArialMT-61" d="M 2588 409 
Q 2275 144 1986 34 
Q 1697 -75 1366 -75 
Q 819 -75 525 192 
Q 231 459 231 875 
Q 231 1119 342 1320 
Q 453 1522 633 1644 
Q 813 1766 1038 1828 
Q 1203 1872 1538 1913 
Q 2219 1994 2541 2106 
Q 2544 2222 2544 2253 
Q 2544 2597 2384 2738 
Q 2169 2928 1744 2928 
Q 1347 2928 1158 2789 
Q 969 2650 878 2297 
L 328 2372 
Q 403 2725 575 2942 
Q 747 3159 1072 3276 
Q 1397 3394 1825 3394 
Q 2250 3394 2515 3294 
Q 2781 3194 2906 3042 
Q 3031 2891 3081 2659 
Q 3109 2516 3109 2141 
L 3109 1391 
Q 3109 606 3145 398 
Q 3181 191 3288 0 
L 2700 0 
Q 2613 175 2588 409 
z
M 2541 1666 
Q 2234 1541 1622 1453 
Q 1275 1403 1131 1340 
Q 988 1278 909 1158 
Q 831 1038 831 891 
Q 831 666 1001 516 
Q 1172 366 1500 366 
Q 1825 366 2078 508 
Q 2331 650 2450 897 
Q 2541 1088 2541 1459 
L 2541 1666 
z
" transform="scale(0.015625)"/>
       <path id="ArialMT-72" d="M 416 0 
L 416 3319 
L 922 3319 
L 922 2816 
Q 1116 3169 1280 3281 
Q 1444 3394 1641 3394 
Q 1925 3394 2219 3213 
L 2025 2691 
Q 1819 2813 1613 2813 
Q 1428 2813 1281 2702 
Q 1134 2591 1072 2394 
Q 978 2094 978 1738 
L 978 0 
L 416 0 
z
" transform="scale(0.015625)"/>
       <path id="ArialMT-44" d="M 494 0 
L 494 4581 
L 2072 4581 
Q 2606 4581 2888 4516 
Q 3281 4425 3559 4188 
Q 3922 3881 4101 3404 
Q 4281 2928 4281 2316 
Q 4281 1794 4159 1391 
Q 4038 988 3847 723 
Q 3656 459 3429 307 
Q 3203 156 2883 78 
Q 2563 0 2147 0 
L 494 0 
z
M 1100 541 
L 2078 541 
Q 2531 541 2789 625 
Q 3047 709 3200 863 
Q 3416 1078 3536 1442 
Q 3656 1806 3656 2325 
Q 3656 3044 3420 3430 
Q 3184 3816 2847 3947 
Q 2603 4041 2063 4041 
L 1100 4041 
L 1100 541 
z
" transform="scale(0.015625)"/>
       <path id="ArialMT-65" d="M 2694 1069 
L 3275 997 
Q 3138 488 2766 206 
Q 2394 -75 1816 -75 
Q 1088 -75 661 373 
Q 234 822 234 1631 
Q 234 2469 665 2931 
Q 1097 3394 1784 3394 
Q 2450 3394 2872 2941 
Q 3294 2488 3294 1666 
Q 3294 1616 3291 1516 
L 816 1516 
Q 847 969 1125 678 
Q 1403 388 1819 388 
Q 2128 388 2347 550 
Q 2566 713 2694 1069 
z
M 847 1978 
L 2700 1978 
Q 2663 2397 2488 2606 
Q 2219 2931 1791 2931 
Q 1403 2931 1139 2672 
Q 875 2413 847 1978 
z
" transform="scale(0.015625)"/>
      </defs>
      <use xlink:href="#ArialMT-57"/>
      <use xlink:href="#ArialMT-69" transform="translate(94.384766 0)"/>
      <use xlink:href="#ArialMT-6e" transform="translate(116.601562 0)"/>
      <use xlink:href="#ArialMT-64" transform="translate(172.216797 0)"/>
      <use xlink:href="#ArialMT-6f" transform="translate(227.832031 0)"/>
      <use xlink:href="#ArialMT-77" transform="translate(283.447266 0)"/>
      <use xlink:href="#ArialMT-20" transform="translate(355.664062 0)"/>
      <use xlink:href="#ArialMT-53" transform="translate(383.447266 0)"/>
      <use xlink:href="#ArialMT-74" transform="translate(450.146484 0)"/>
      <use xlink:href="#ArialMT-61" transform="translate(477.929688 0)"/>
      <use xlink:href="#ArialMT-72" transform="translate(533.544922 0)"/>
      <use xlink:href="#ArialMT-74" transform="translate(566.845703 0)"/>
      <use xlink:href="#ArialMT-20" transform="translate(594.628906 0)"/>
      <use xlink:href="#ArialMT-44" transform="translate(622.412109 0)"/>
      <use xlink:href="#ArialMT-61" transform="translate(694.628906 0)"/>
      <use xlink:href="#ArialMT-74" transform="translate(750.244141 0)"/>
      <use xlink:href="#ArialMT-65" transform="translate(778.027344 0)"/>
     </g>
    </g>
   </g>
   <g id="matplotlib.axis_2">
    <g id="ytick_1">
     <g id="line2d_7">
      <path d="M 40.583125 344.63632 
L 849.606875 344.63632 
" clip-path="url(#p89201456d1)" style="fill: none; stroke: #cccccc; stroke-width: 0.8; stroke-linecap: round"/>
     </g>
     <g id="text_8">
      <!-- 20 -->
      <g style="fill: #262626" transform="translate(22.46125 348.215226) scale(0.1 -0.1)">
       <use xlink:href="#ArialMT-32"/>
       <use xlink:href="#ArialMT-30" transform="translate(55.615234 0)"/>
      </g>
     </g>
    </g>
    <g id="ytick_2">
     <g id="line2d_8">
      <path d="M 40.583125 276.997471 
L 849.606875 276.997471 
" clip-path="url(#p89201456d1)" style="fill: none; stroke: #cccccc; stroke-width: 0.8; stroke-linecap: round"/>
     </g>
     <g id="text_9">
      <!-- 30 -->
      <g style="fill: #262626" transform="translate(22.46125 280.576377) scale(0.1 -0.1)">
       <use xlink:href="#ArialMT-33"/>
       <use xlink:href="#ArialMT-30" transform="translate(55.615234 0)"/>
      </g>
     </g>
    </g>
    <g id="ytick_3">
     <g id="line2d_9">
      <path d="M 40.583125 209.358622 
L 849.606875 209.358622 
" clip-path="url(#p89201456d1)" style="fill: none; stroke: #cccccc; stroke-width: 0.8; stroke-linecap: round"/>
     </g>
     <g id="text_10">
      <!-- 40 -->
      <g style="fill: #262626" transform="translate(22.46125 212.937528) scale(0.1 -0.1)">
       <use xlink:href="#ArialMT-34"/>
       <use xlink:href="#ArialMT-30" transform="translate(55.615234 0)"/>
      </g>
     </g>
    </g>
    <g id="ytick_4">
     <g id="line2d_10">
      <path d="M 40.583125 141.719773 
L 849.606875 141.719773 
" clip-path="url(#p89201456d1)" style="fill: none; stroke: #cccccc; stroke-width: 0.8; stroke-linecap: round"/>
     </g>
     <g id="text_11">
      <!-- 50 -->
      <g style="fill: #262626" transform="translate(22.46125 145.298679) scale(0.1 -0.1)">
       <use xlink:href="#ArialMT-35"/>
       <use xlink:href="#ArialMT-30" transform="translate(55.615234 0)"/>
      </g>
     </g>
    </g>
    <g id="ytick_5">
     <g id="line2d_11">
      <path d="M 40.583125 74.080924 
L 849.606875 74.080924 
" clip-path="url(#p89201456d1)" style="fill: none; stroke: #cccccc; stroke-width: 0.8; stroke-linecap: round"/>
     </g>
     <g id="text_12">
      <!-- 60 -->
      <g style="fill: #262626" transform="translate(22.46125 77.65983) scale(0.1 -0.1)">
       <defs>
        <path id="ArialMT-36" d="M 3184 3459 
L 2625 3416 
Q 2550 3747 2413 3897 
Q 2184 4138 1850 4138 
Q 1581 4138 1378 3988 
Q 1113 3794 959 3422 
Q 806 3050 800 2363 
Q 1003 2672 1297 2822 
Q 1591 2972 1913 2972 
Q 2475 2972 2870 2558 
Q 3266 2144 3266 1488 
Q 3266 1056 3080 686 
Q 2894 316 2569 119 
Q 2244 -78 1831 -78 
Q 1128 -78 684 439 
Q 241 956 241 2144 
Q 241 3472 731 4075 
Q 1159 4600 1884 4600 
Q 2425 4600 2770 4297 
Q 3116 3994 3184 3459 
z
M 888 1484 
Q 888 1194 1011 928 
Q 1134 663 1356 523 
Q 1578 384 1822 384 
Q 2178 384 2434 671 
Q 2691 959 2691 1453 
Q 2691 1928 2437 2201 
Q 2184 2475 1800 2475 
Q 1419 2475 1153 2201 
Q 888 1928 888 1484 
z
" transform="scale(0.015625)"/>
       </defs>
       <use xlink:href="#ArialMT-36"/>
       <use xlink:href="#ArialMT-30" transform="translate(55.615234 0)"/>
      </g>
     </g>
    </g>
    <g id="text_13">
     <!-- SPD Percentile (%) -->
     <g style="fill: #262626" transform="translate(15.935625 244.784565) rotate(-90) scale(0.12 -0.12)">
      <defs>
       <path id="ArialMT-50" d="M 494 0 
L 494 4581 
L 2222 4581 
Q 2678 4581 2919 4538 
Q 3256 4481 3484 4323 
Q 3713 4166 3852 3881 
Q 3991 3597 3991 3256 
Q 3991 2672 3619 2267 
Q 3247 1863 2275 1863 
L 1100 1863 
L 1100 0 
L 494 0 
z
M 1100 2403 
L 2284 2403 
Q 2872 2403 3119 2622 
Q 3366 2841 3366 3238 
Q 3366 3525 3220 3729 
Q 3075 3934 2838 4000 
Q 2684 4041 2272 4041 
L 1100 4041 
L 1100 2403 
z
" transform="scale(0.015625)"/>
       <path id="ArialMT-63" d="M 2588 1216 
L 3141 1144 
Q 3050 572 2676 248 
Q 2303 -75 1759 -75 
Q 1078 -75 664 370 
Q 250 816 250 1647 
Q 250 2184 428 2587 
Q 606 2991 970 3192 
Q 1334 3394 1763 3394 
Q 2303 3394 2647 3120 
Q 2991 2847 3088 2344 
L 2541 2259 
Q 2463 2594 2264 2762 
Q 2066 2931 1784 2931 
Q 1359 2931 1093 2626 
Q 828 2322 828 1663 
Q 828 994 1084 691 
Q 1341 388 1753 388 
Q 2084 388 2306 591 
Q 2528 794 2588 1216 
z
" transform="scale(0.015625)"/>
       <path id="ArialMT-6c" d="M 409 0 
L 409 4581 
L 972 4581 
L 972 0 
L 409 0 
z
" transform="scale(0.015625)"/>
       <path id="ArialMT-28" d="M 1497 -1347 
Q 1031 -759 709 28 
Q 388 816 388 1659 
Q 388 2403 628 3084 
Q 909 3875 1497 4659 
L 1900 4659 
Q 1522 4009 1400 3731 
Q 1209 3300 1100 2831 
Q 966 2247 966 1656 
Q 966 153 1900 -1347 
L 1497 -1347 
z
" transform="scale(0.015625)"/>
       <path id="ArialMT-25" d="M 372 3481 
Q 372 3972 619 4315 
Q 866 4659 1334 4659 
Q 1766 4659 2048 4351 
Q 2331 4044 2331 3447 
Q 2331 2866 2045 2552 
Q 1759 2238 1341 2238 
Q 925 2238 648 2547 
Q 372 2856 372 3481 
z
M 1350 4272 
Q 1141 4272 1002 4090 
Q 863 3909 863 3425 
Q 863 2984 1003 2804 
Q 1144 2625 1350 2625 
Q 1563 2625 1702 2806 
Q 1841 2988 1841 3469 
Q 1841 3913 1700 4092 
Q 1559 4272 1350 4272 
z
M 1353 -169 
L 3859 4659 
L 4316 4659 
L 1819 -169 
L 1353 -169 
z
M 3334 1075 
Q 3334 1569 3581 1911 
Q 3828 2253 4300 2253 
Q 4731 2253 5014 1945 
Q 5297 1638 5297 1041 
Q 5297 459 5011 145 
Q 4725 -169 4303 -169 
Q 3888 -169 3611 142 
Q 3334 453 3334 1075 
z
M 4316 1866 
Q 4103 1866 3964 1684 
Q 3825 1503 3825 1019 
Q 3825 581 3965 400 
Q 4106 219 4313 219 
Q 4528 219 4667 400 
Q 4806 581 4806 1063 
Q 4806 1506 4665 1686 
Q 4525 1866 4316 1866 
z
" transform="scale(0.015625)"/>
       <path id="ArialMT-29" d="M 791 -1347 
L 388 -1347 
Q 1322 153 1322 1656 
Q 1322 2244 1188 2822 
Q 1081 3291 891 3722 
Q 769 4003 388 4659 
L 791 4659 
Q 1378 3875 1659 3084 
Q 1900 2403 1900 1659 
Q 1900 816 1576 28 
Q 1253 -759 791 -1347 
z
" transform="scale(0.015625)"/>
      </defs>
      <use xlink:href="#ArialMT-53"/>
      <use xlink:href="#ArialMT-50" transform="translate(66.699219 0)"/>
      <use xlink:href="#ArialMT-44" transform="translate(133.398438 0)"/>
      <use xlink:href="#ArialMT-20" transform="translate(205.615234 0)"/>
      <use xlink:href="#ArialMT-50" transform="translate(233.398438 0)"/>
      <use xlink:href="#ArialMT-65" transform="translate(300.097656 0)"/>
      <use xlink:href="#ArialMT-72" transform="translate(355.712891 0)"/>
      <use xlink:href="#ArialMT-63" transform="translate(389.013672 0)"/>
      <use xlink:href="#ArialMT-65" transform="translate(439.013672 0)"/>
      <use xlink:href="#ArialMT-6e" transform="translate(494.628906 0)"/>
      <use xlink:href="#ArialMT-74" transform="translate(550.244141 0)"/>
      <use xlink:href="#ArialMT-69" transform="translate(578.027344 0)"/>
      <use xlink:href="#ArialMT-6c" transform="translate(600.244141 0)"/>
      <use xlink:href="#ArialMT-65" transform="translate(622.460938 0)"/>
      <use xlink:href="#ArialMT-20" transform="translate(678.076172 0)"/>
      <use xlink:href="#ArialMT-28" transform="translate(705.859375 0)"/>
      <use xlink:href="#ArialMT-25" transform="translate(739.160156 0)"/>
      <use xlink:href="#ArialMT-29" transform="translate(828.076172 0)"/>
     </g>
    </g>
   </g>
   <g id="FillBetweenPolyCollection_1"/>
   <g id="FillBetweenPolyCollection_2"/>
   <g id="line2d_12">
    <path d="M 77.356932 200.981445 
L 77.752988 195.254092 
L 78.149044 194.634451 
L 78.5451 195.637458 
L 78.941156 194.79352 
L 79.733268 188.010365 
L 80.129324 187.414985 
L 82.901717 193.619171 
L 88.842558 205.347749 
L 92.011007 211.11926 
L 92.407063 205.125672 
L 93.199175 206.485831 
L 93.595231 205.712064 
L 94.387343 207.086386 
L 94.783399 207.218885 
L 95.179455 207.901382 
L 95.575511 208.126241 
L 95.971567 206.353048 
L 96.367624 207.087399 
L 96.76368 205.048373 
L 97.159736 205.814671 
L 97.555792 205.596661 
L 100.328184 210.908744 
L 100.72424 211.101282 
L 103.496633 216.899331 
L 104.288745 218.672079 
L 105.476913 221.999486 
L 105.872969 208.948617 
L 107.061138 219.281032 
L 107.457194 207.298457 
L 107.85325 206.668755 
L 108.249306 187.159932 
L 109.437474 197.49861 
L 109.83353 197.910031 
L 110.229586 201.248432 
L 111.813811 209.893626 
L 112.209867 212.277534 
L 112.605923 189.056162 
L 113.001979 192.17445 
L 113.398035 184.231635 
L 114.190147 189.258102 
L 116.170427 197.915148 
L 117.754652 204.735292 
L 118.150708 204.679634 
L 118.94282 208.232547 
L 119.338876 200.686216 
L 120.9231 207.630653 
L 121.319156 208.79272 
L 121.715213 198.008322 
L 122.111269 183.881334 
L 122.507325 184.654589 
L 122.903381 184.935697 
L 123.299437 179.907201 
L 123.695493 179.690775 
L 124.091549 181.48842 
L 124.487605 146.855212 
L 128.05211 162.250649 
L 129.240278 167.16515 
L 129.636334 162.246474 
L 131.220558 171.779131 
L 132.804783 182.747471 
L 134.389007 193.060235 
L 134.785063 191.159619 
L 135.181119 193.83952 
L 135.577175 190.099685 
L 137.953512 204.290984 
L 139.537736 213.334366 
L 141.12196 221.162501 
L 141.914072 224.349966 
L 142.706185 228.246168 
L 144.290409 234.143658 
L 147.854914 248.05849 
L 148.25097 248.24859 
L 149.043082 251.155877 
L 149.835194 253.971131 
L 150.23125 255.518861 
L 151.023362 257.860554 
L 151.419418 257.366772 
L 155.776035 271.289791 
L 156.568147 273.680748 
L 156.964203 275.047683 
L 157.36026 270.516687 
L 157.756316 268.462555 
L 158.152372 269.256096 
L 158.548428 270.556205 
L 158.944484 267.699235 
L 159.736596 259.430746 
L 164.093213 272.548719 
L 172.41039 297.65601 
L 175.578839 307.862109 
L 176.767007 312.14935 
L 177.163063 311.775664 
L 177.559119 312.765192 
L 181.123624 325.110008 
L 182.707848 330.389737 
L 183.103905 326.579969 
L 186.668409 339.00483 
L 187.064465 339.546868 
L 187.856578 342.475248 
L 188.252634 342.936566 
L 188.64869 340.45166 
L 189.044746 340.03568 
L 189.440802 337.834679 
L 189.836858 338.95 
L 191.817138 346.431448 
L 192.213194 347.38613 
L 192.60925 346.911381 
L 193.401363 339.780266 
L 193.797419 328.734837 
L 194.193475 328.179083 
L 194.589531 329.68942 
L 194.985587 329.68725 
L 195.777699 332.384779 
L 196.173755 330.881723 
L 196.569811 332.340449 
L 196.965867 331.245378 
L 197.361923 331.475929 
L 198.550092 335.966832 
L 198.946148 331.164454 
L 199.342204 331.069245 
L 199.73826 323.522842 
L 200.530372 326.366472 
L 200.926428 318.024255 
L 201.71854 321.066912 
L 202.114596 317.409184 
L 202.510652 315.264479 
L 203.698821 319.734054 
L 204.094877 311.22157 
L 204.490933 306.996233 
L 207.263325 316.357186 
L 208.451494 320.26621 
L 208.84755 314.456052 
L 209.243606 311.910042 
L 210.82783 317.225985 
L 213.204166 324.634105 
L 213.996279 327.292344 
L 214.392335 319.663015 
L 214.788391 316.617045 
L 215.184447 316.846549 
L 215.580503 316.346376 
L 216.372615 277.494852 
L 217.956839 282.421887 
L 218.352895 276.893939 
L 218.748952 278.104952 
L 219.145008 272.765309 
L 219.541064 260.558111 
L 219.93712 239.122469 
L 220.333176 240.309961 
L 220.729232 229.345776 
L 221.125288 225.74722 
L 221.521344 202.849581 
L 221.9174 203.114148 
L 222.709512 190.632311 
L 223.501625 192.218881 
L 223.897681 192.870878 
L 224.293737 193.301123 
L 224.689793 193.344187 
L 225.877961 193.038096 
L 226.274017 193.158476 
L 227.066129 194.000848 
L 229.442466 195.422363 
L 229.838522 195.573923 
L 230.234578 195.37617 
L 231.02669 194.24913 
L 232.610914 192.789981 
L 233.00697 192.71025 
L 233.799083 192.832175 
L 234.987251 193.043844 
L 235.383307 192.937646 
L 236.175419 193.27398 
L 237.363587 193.889155 
L 238.551755 193.614667 
L 239.739924 193.038471 
L 240.532036 192.757979 
L 241.324148 192.005081 
L 241.720204 191.593521 
L 242.11626 190.988487 
L 243.304428 188.45734 
L 244.096541 187.348561 
L 244.888653 186.668771 
L 246.472877 186.11593 
L 249.24527 183.043318 
L 250.433438 181.181778 
L 251.22555 179.801113 
L 253.20583 177.344352 
L 253.997942 176.366431 
L 255.186111 175.442745 
L 257.166391 174.233271 
L 260.730896 170.901143 
L 261.523008 169.971175 
L 265.087513 164.512399 
L 268.652017 160.305879 
L 270.236242 157.898877 
L 271.42441 156.062788 
L 272.612578 151.676728 
L 273.008634 149.161608 
L 273.40469 148.43244 
L 273.800746 161.147344 
L 274.196802 161.844729 
L 274.988915 160.579378 
L 276.177083 158.517841 
L 276.573139 164.036606 
L 276.969195 163.620853 
L 277.365251 163.985866 
L 277.761307 163.81953 
L 278.553419 164.390494 
L 278.949475 165.125192 
L 279.741588 165.335903 
L 280.137644 166.945818 
L 280.5337 167.045595 
L 280.929756 167.618079 
L 281.721868 169.121438 
L 282.910036 170.210165 
L 283.306092 170.254698 
L 283.702148 170.682883 
L 284.49426 172.054669 
L 285.286373 174.243227 
L 285.682429 174.583419 
L 286.078485 178.455555 
L 286.474541 210.199732 
L 286.870597 269.49439 
L 287.266653 271.33433 
L 287.662709 268.255092 
L 288.058765 288.663528 
L 288.454821 287.621166 
L 288.850877 305.327766 
L 289.246933 304.567057 
L 289.642989 304.419167 
L 290.039046 303.680214 
L 290.435102 303.750352 
L 290.831158 304.135216 
L 292.019326 304.165476 
L 292.415382 304.221577 
L 293.60355 303.783739 
L 294.395662 303.234528 
L 295.187775 303.001906 
L 295.979887 302.52732 
L 297.168055 302.05062 
L 297.564111 302.002024 
L 299.148335 301.139636 
L 300.336504 298.956657 
L 301.128616 298.101581 
L 301.524672 297.632431 
L 301.920728 297.471406 
L 302.316784 297.085413 
L 303.108896 295.840301 
L 308.653681 284.611681 
L 313.010298 274.86331 
L 316.178747 265.517031 
L 319.743251 253.789465 
L 320.139307 252.440162 
L 320.535364 253.952811 
L 321.327476 251.1889 
L 324.099868 243.310691 
L 326.080149 236.707953 
L 326.476205 239.093564 
L 326.872261 236.035857 
L 332.813102 217.41689 
L 335.585495 207.943058 
L 337.961831 202.095537 
L 339.942111 197.14398 
L 340.338167 196.190158 
L 340.734224 194.782902 
L 341.526336 192.93959 
L 345.486896 178.766722 
L 345.882953 232.397626 
L 346.279009 232.113911 
L 347.863233 218.343049 
L 348.259289 219.059797 
L 348.655345 223.269812 
L 349.051401 219.918905 
L 349.447457 218.187033 
L 350.239569 211.51576 
L 350.635625 213.071866 
L 352.21985 200.329206 
L 352.615906 200.162113 
L 353.804074 190.856492 
L 354.20013 190.9915 
L 354.596186 190.039442 
L 354.992242 190.495046 
L 355.784354 205.480609 
L 356.576467 202.757169 
L 358.556747 198.184557 
L 358.952803 196.822902 
L 359.744915 195.059987 
L 360.537027 192.760478 
L 361.32914 190.919662 
L 362.121252 187.70722 
L 363.30942 183.933223 
L 364.893644 180.370406 
L 365.2897 190.250834 
L 365.685756 189.243955 
L 366.873925 183.372255 
L 367.269981 182.516874 
L 369.250261 172.07923 
L 370.042373 167.251917 
L 371.626598 157.208523 
L 374.795046 145.978374 
L 375.191102 144.899408 
L 376.379271 139.393692 
L 378.359551 130.144558 
L 381.131943 121.830337 
L 382.320112 119.101551 
L 384.300392 114.307781 
L 387.468841 107.799979 
L 389.449121 101.79709 
L 389.845177 101.044764 
L 390.241233 99.501608 
L 393.013626 93.244756 
L 393.409682 91.601698 
L 394.201794 89.40611 
L 394.993906 87.832209 
L 395.389962 87.1605 
L 395.786018 85.768586 
L 397.370243 83.174462 
L 400.538691 77.880107 
L 401.330803 76.372989 
L 401.726859 76.68101 
L 402.122916 77.396887 
L 403.70714 74.485476 
L 404.103196 77.080689 
L 404.499252 83.371038 
L 404.895308 82.66739 
L 405.291364 84.545754 
L 405.68742 83.878325 
L 406.479532 87.727181 
L 407.271645 86.802606 
L 409.647981 83.458945 
L 410.044037 83.349929 
L 410.440093 86.418665 
L 410.836149 86.098847 
L 412.024318 84.499952 
L 412.420374 86.980848 
L 412.81643 86.456683 
L 413.212486 85.108979 
L 413.608542 84.759185 
L 414.79671 83.171632 
L 415.588822 82.193793 
L 415.984878 98.459305 
L 416.380934 101.312821 
L 416.77699 102.278586 
L 417.173047 109.990567 
L 417.569103 127.113886 
L 417.965159 125.080926 
L 419.549383 126.368161 
L 423.113888 129.230114 
L 424.698112 130.391052 
L 425.88628 131.582318 
L 426.282336 131.857359 
L 426.678392 136.572934 
L 427.866561 137.517708 
L 428.262617 137.711613 
L 428.658673 138.032427 
L 429.054729 140.959043 
L 429.450785 148.863362 
L 431.035009 149.807284 
L 431.827121 149.635847 
L 433.01529 152.814576 
L 433.411346 153.491209 
L 434.599514 156.182086 
L 434.99557 156.926669 
L 435.391626 154.999871 
L 438.956131 161.605672 
L 439.352187 156.886107 
L 440.540355 159.139227 
L 442.916692 163.216353 
L 443.312748 160.570517 
L 445.689084 164.694617 
L 447.273308 166.997018 
L 448.461477 168.94327 
L 449.253589 170.2497 
L 451.233869 172.703395 
L 454.798374 177.460669 
L 456.382598 179.130812 
L 457.17471 179.778991 
L 457.966823 180.322103 
L 459.154991 181.901688 
L 461.531327 185.19874 
L 462.323439 186.824008 
L 463.907664 189.782661 
L 465.491888 193.479524 
L 466.284 195.014994 
L 467.076112 195.862709 
L 467.472168 197.009637 
L 467.868224 197.386665 
L 469.848505 200.972634 
L 471.036673 203.542628 
L 471.828785 207.234183 
L 473.41301 210.60984 
L 476.581458 217.54368 
L 478.165682 220.981696 
L 480.145963 225.336296 
L 481.334131 227.32057 
L 482.522299 229.445437 
L 483.314412 231.020862 
L 483.710468 211.889794 
L 484.106524 203.640246 
L 484.50258 198.871952 
L 485.294692 200.425755 
L 485.690748 201.474852 
L 486.086804 202.043405 
L 486.48286 202.886114 
L 486.878916 202.809134 
L 487.274972 196.625457 
L 489.651309 202.719528 
L 490.047365 201.944786 
L 490.443421 194.195552 
L 490.839477 191.283696 
L 492.027645 200.75236 
L 492.423701 204.371622 
L 492.819757 203.641563 
L 494.403982 217.781293 
L 495.196094 225.366789 
L 495.59215 217.710739 
L 497.968486 243.281251 
L 498.364542 242.182421 
L 498.760599 246.812447 
L 499.552711 236.538398 
L 499.948767 234.421306 
L 500.740879 211.206101 
L 501.532991 214.977387 
L 501.929047 215.682914 
L 504.305384 222.637797 
L 506.285664 228.31295 
L 506.68172 227.755857 
L 510.642281 239.358761 
L 511.038337 241.230752 
L 511.434393 241.409917 
L 511.830449 237.590695 
L 512.226505 239.417594 
L 512.622561 237.749331 
L 513.018617 239.660738 
L 513.414673 239.03163 
L 513.810729 240.939049 
L 514.206786 227.61543 
L 514.602842 227.634758 
L 514.998898 223.475915 
L 515.394954 213.521662 
L 516.187066 165.580912 
L 516.583122 161.268693 
L 519.355515 171.189694 
L 522.127907 179.358122 
L 524.9003 187.73522 
L 526.088468 191.449306 
L 526.484524 192.856689 
L 526.88058 193.227287 
L 527.672692 189.299907 
L 528.068748 182.044026 
L 528.464804 183.533809 
L 528.86086 175.934775 
L 529.256917 177.006524 
L 529.652973 177.161783 
L 530.841141 180.885035 
L 531.237197 181.597296 
L 533.217477 187.863404 
L 534.009589 171.338431 
L 534.405646 156.129686 
L 534.801702 158.402988 
L 535.197758 159.749311 
L 535.593814 159.291565 
L 535.98987 148.645418 
L 537.97015 156.533437 
L 538.366206 157.008547 
L 538.762262 145.754554 
L 539.158318 111.584964 
L 539.554375 58.743407 
L 539.950431 56.110751 
L 540.346487 57.760595 
L 540.742543 40.610794 
L 541.138599 38.819875 
L 543.514935 47.304456 
L 545.495216 54.640523 
L 547.475496 61.747457 
L 552.624225 79.196541 
L 555.000562 86.452953 
L 557.772954 96.104504 
L 561.733515 108.490092 
L 564.901964 120.156288 
L 569.25858 137.582898 
L 576.783646 167.403868 
L 577.575758 174.360476 
L 579.159982 180.493168 
L 580.348151 183.913124 
L 580.744207 186.226045 
L 581.140263 187.688616 
L 581.536319 189.970137 
L 581.932375 191.383748 
L 582.328431 193.596603 
L 583.120543 196.132021 
L 583.912655 198.161066 
L 587.873216 216.429146 
L 588.665328 218.678951 
L 590.645609 224.004374 
L 596.982506 243.690682 
L 598.56673 250.06437 
L 599.754898 253.581126 
L 600.943067 257.29967 
L 603.319403 265.590311 
L 608.468132 283.351035 
L 610.052356 292.252007 
L 611.636581 298.334283 
L 612.032637 292.225609 
L 612.428693 291.775199 
L 617.577422 310.333412 
L 617.973478 310.338582 
L 618.369534 307.974465 
L 620.349814 315.030173 
L 623.914319 327.446091 
L 624.310375 328.089137 
L 624.706431 329.612069 
L 625.102487 328.491748 
L 625.498543 319.530993 
L 626.290656 322.59843 
L 626.686712 320.58434 
L 627.082768 313.309276 
L 627.478824 312.571247 
L 627.87488 313.323338 
L 628.270936 283.896923 
L 628.666992 276.408164 
L 629.85516 280.397539 
L 630.251216 279.808114 
L 630.647272 277.086286 
L 631.043328 278.599187 
L 631.439385 278.350327 
L 631.835441 279.054454 
L 632.627553 281.976325 
L 633.023609 280.284894 
L 633.419665 281.828061 
L 633.815721 268.948681 
L 634.607833 261.555726 
L 635.003889 262.309215 
L 635.399945 246.32018 
L 635.796001 217.283722 
L 636.192058 218.78706 
L 636.588114 215.058405 
L 636.98417 216.581964 
L 637.380226 213.960366 
L 638.568394 218.572415 
L 638.96445 216.456285 
L 639.360506 212.574569 
L 639.756562 204.097894 
L 640.152618 185.838903 
L 642.132899 193.687651 
L 642.528955 189.33529 
L 643.321067 192.533991 
L 644.113179 174.033226 
L 644.509235 174.113472 
L 645.301347 177.159331 
L 645.697403 176.402169 
L 646.093459 177.547512 
L 646.489516 175.868567 
L 648.865852 183.551265 
L 649.261908 178.024028 
L 649.657964 176.102659 
L 659.559366 208.514941 
L 660.747534 212.073946 
L 662.727815 219.045874 
L 664.312039 224.928296 
L 664.708095 223.153415 
L 665.104151 224.117841 
L 665.500207 225.724173 
L 665.896263 207.890581 
L 666.292319 207.254102 
L 666.688375 208.825245 
L 667.084432 204.55068 
L 669.460768 213.765951 
L 669.856824 213.977555 
L 670.25288 211.428405 
L 671.044992 190.852692 
L 671.441048 171.297456 
L 672.233161 160.367661 
L 672.629217 144.550006 
L 673.025273 146.022712 
L 673.421329 134.138212 
L 676.985834 146.85002 
L 677.38189 137.764171 
L 677.777946 138.053757 
L 678.174002 110.246857 
L 678.966114 114.191886 
L 679.36217 114.485364 
L 680.154282 118.501924 
L 680.550338 119.291065 
L 681.34245 122.761766 
L 682.926675 127.339298 
L 683.322731 128.15436 
L 684.510899 131.217189 
L 686.095123 135.652784 
L 687.679348 139.710262 
L 688.47146 141.412879 
L 688.867516 142.379892 
L 689.659628 143.388179 
L 691.243852 145.345639 
L 693.224133 148.359212 
L 694.412301 150.132133 
L 694.808357 150.581049 
L 695.204413 151.426328 
L 696.788637 153.278908 
L 699.957086 158.18967 
L 703.125535 164.288299 
L 703.917647 166.04149 
L 705.105815 168.965401 
L 706.293983 171.466379 
L 710.254544 181.432204 
L 710.6506 181.161718 
L 711.046656 182.019014 
L 711.442712 181.477655 
L 711.838768 172.64131 
L 712.234824 166.976196 
L 722.136226 186.382361 
L 724.512563 191.42524 
L 725.700731 194.374058 
L 726.888899 199.807163 
L 727.284955 201.297852 
L 727.681011 203.432789 
L 728.473124 205.762834 
L 729.265236 207.939838 
L 731.245516 221.900825 
L 731.641572 210.5402 
L 732.037628 208.765915 
L 732.433684 211.58792 
L 732.82974 209.862298 
L 733.225797 210.359297 
L 733.621853 211.973486 
L 735.998189 218.126688 
L 736.394245 218.753418 
L 740.750862 229.432719 
L 741.93903 232.979582 
L 743.127198 242.888321 
L 743.523255 245.359602 
L 744.315367 247.802556 
L 744.711423 248.584329 
L 745.107479 241.268494 
L 747.879871 252.749592 
L 749.464096 257.346479 
L 750.652264 260.363241 
L 753.0286 267.471207 
L 753.424657 269.25335 
L 753.820713 270.513483 
L 754.216769 272.377615 
L 754.612825 273.694187 
L 755.008881 274.567467 
L 755.404937 273.472335 
L 755.800993 262.200546 
L 756.197049 263.775622 
L 756.593105 266.017454 
L 756.989161 261.963857 
L 757.385217 262.897028 
L 758.573386 267.167753 
L 758.969442 253.767856 
L 761.345778 261.931587 
L 764.910283 274.10759 
L 765.702395 277.228807 
L 766.098451 278.087425 
L 766.494507 275.354622 
L 768.078731 281.148863 
L 768.474787 268.018903 
L 768.870844 267.489869 
L 769.2669 268.929124 
L 769.662956 247.552935 
L 770.059012 244.524369 
L 770.851124 247.696735 
L 772.039292 252.634262 
L 772.831404 255.215626 
L 773.22746 257.053222 
L 774.019573 259.445374 
L 774.415629 257.822615 
L 774.811685 253.526986 
L 777.980133 262.43512 
L 778.376189 252.926646 
L 778.772245 202.914552 
L 779.168302 201.565491 
L 779.564358 198.404816 
L 780.35647 201.268462 
L 780.752526 202.1598 
L 781.544638 203.174972 
L 781.940694 203.044663 
L 782.33675 203.123469 
L 782.732806 202.939282 
L 783.920975 201.87703 
L 784.713087 199.624923 
L 785.505199 197.063716 
L 785.901255 196.10488 
L 786.297311 195.762132 
L 788.277591 192.786128 
L 788.673647 191.689307 
L 789.069704 191.093285 
L 789.46576 191.020464 
L 789.861816 190.778628 
L 790.257872 190.306142 
L 790.653928 189.524672 
L 791.842096 188.308483 
L 792.634208 187.796009 
L 793.822376 186.268528 
L 795.010545 184.049307 
L 795.406601 183.181214 
L 796.594769 181.678809 
L 798.178993 179.768267 
L 798.971105 178.745739 
L 800.951386 177.814182 
L 802.931666 177.037697 
L 803.723778 176.561105 
L 804.911947 176.251162 
L 805.308003 176.151359 
L 806.496171 176.218235 
L 807.288283 175.951124 
L 808.080395 175.351451 
L 810.060676 173.346051 
L 810.852788 172.361269 
L 812.040956 171.107086 
L 812.437012 170.525842 
L 812.833068 169.703789 
L 812.833068 169.703789 
" clip-path="url(#p89201456d1)" style="fill: none; stroke: #f77189; stroke-width: 2.5; stroke-linecap: round"/>
   </g>
   <g id="line2d_13">
    <path d="M 77.356932 223.063264 
L 77.752988 217.045669 
L 78.149044 216.420727 
L 78.5451 217.506544 
L 78.941156 216.642696 
L 79.733268 209.53352 
L 80.129324 208.928986 
L 82.901717 215.645398 
L 88.842558 228.342303 
L 90.822838 232.270066 
L 92.011007 234.654847 
L 92.407063 228.343482 
L 93.199175 229.831671 
L 93.595231 229.042738 
L 94.387343 230.539888 
L 94.783399 230.70372 
L 95.179455 231.447799 
L 95.575511 231.708154 
L 95.971567 229.863871 
L 96.367624 230.678764 
L 96.76368 228.543215 
L 97.159736 229.378626 
L 97.555792 229.172143 
L 100.328184 234.963327 
L 100.72424 235.239 
L 103.496633 241.561408 
L 105.080857 245.346083 
L 105.476913 246.3963 
L 105.872969 233.859247 
L 107.061138 238.989194 
L 107.457194 226.062609 
L 107.85325 223.71732 
L 108.249306 203.501826 
L 109.437474 208.631084 
L 109.83353 207.111258 
L 112.209867 216.83575 
L 112.605923 193.232291 
L 113.001979 194.272233 
L 113.398035 185.646248 
L 115.774371 196.244972 
L 117.754652 204.735292 
L 118.150708 204.679634 
L 118.94282 208.232547 
L 119.338876 200.686216 
L 120.9231 207.630653 
L 121.319156 208.79272 
L 121.715213 198.008322 
L 122.111269 183.881334 
L 122.507325 184.654589 
L 122.903381 184.935697 
L 123.299437 179.907201 
L 123.695493 179.690775 
L 124.091549 181.48842 
L 124.487605 146.855212 
L 128.05211 162.250649 
L 129.240278 167.16515 
L 129.636334 162.246474 
L 131.220558 168.732461 
L 133.596895 177.670712 
L 134.389007 180.721933 
L 134.785063 177.587372 
L 135.181119 179.236053 
L 135.577175 174.158402 
L 137.953512 183.093341 
L 139.933792 190.458316 
L 141.914072 197.777701 
L 146.666745 215.97665 
L 147.854914 220.505322 
L 148.25097 220.552741 
L 150.23125 228.392749 
L 151.023362 231.195517 
L 151.419418 230.733385 
L 155.379979 246.004018 
L 155.776035 246.924501 
L 156.964203 251.270166 
L 157.36026 246.146792 
L 157.756316 243.956823 
L 158.152372 244.946176 
L 158.548428 246.500268 
L 158.944484 243.42406 
L 159.736596 234.438288 
L 164.093213 250.118926 
L 172.41039 280.131057 
L 175.578839 292.33097 
L 176.767007 297.455745 
L 177.163063 297.205944 
L 177.559119 298.436239 
L 181.123624 313.192679 
L 182.707848 319.50383 
L 183.103905 315.594564 
L 186.668409 330.446686 
L 187.064465 331.218997 
L 187.856578 334.719451 
L 188.252634 335.415327 
L 188.64869 333.009446 
L 189.044746 332.786583 
L 189.440802 330.691525 
L 190.232914 333.86674 
L 192.213194 342.257754 
L 192.60925 342.009204 
L 193.401363 335.328 
L 193.797419 324.203763 
L 194.193475 323.885126 
L 194.589531 325.690514 
L 194.985587 325.946388 
L 195.777699 329.228123 
L 196.173755 327.958586 
L 196.569811 329.702282 
L 196.965867 328.862709 
L 197.361923 329.371835 
L 198.550092 334.74006 
L 198.946148 330.194592 
L 199.342204 330.387925 
L 199.73826 323.112963 
L 200.530372 326.51211 
L 200.926428 318.489639 
L 201.71854 322.126695 
L 202.114596 318.811989 
L 202.510652 317.003171 
L 203.698821 322.3459 
L 204.094877 314.306689 
L 204.490933 310.486837 
L 207.263325 321.676501 
L 208.451494 326.349173 
L 208.84755 321.114915 
L 209.243606 319.022095 
L 210.82783 325.376535 
L 213.204166 334.231869 
L 213.996279 337.290632 
L 214.392335 330.536123 
L 214.788391 328.04482 
L 215.184447 328.525356 
L 215.580503 328.418627 
L 216.372615 293.23656 
L 217.956839 298.755041 
L 218.352895 294.052263 
L 218.748952 295.51375 
L 219.145008 291.018397 
L 219.541064 280.279437 
L 219.93712 261.177098 
L 220.333176 262.610201 
L 220.729232 253.01976 
L 221.125288 250.0241 
L 221.521344 229.589114 
L 221.9174 230.074853 
L 222.709512 219.294924 
L 223.897681 221.883685 
L 224.293737 222.498835 
L 224.689793 222.808051 
L 226.274017 223.395752 
L 227.462185 224.861062 
L 227.858241 225.091203 
L 229.838522 226.959078 
L 230.234578 227.033544 
L 234.987251 231.5163 
L 235.779363 231.902839 
L 237.363587 233.007099 
L 238.551755 232.64224 
L 239.739924 231.876339 
L 240.532036 231.5035 
L 241.324148 230.502721 
L 241.720204 229.955662 
L 243.700484 226.014063 
L 244.888653 224.575184 
L 246.076821 224.136476 
L 246.472877 223.849685 
L 249.24527 219.921701 
L 250.433438 217.422355 
L 251.22555 215.711717 
L 253.20583 212.408515 
L 253.997942 211.093665 
L 254.790055 210.191377 
L 257.562447 207.737822 
L 259.938784 204.885187 
L 261.523008 202.495017 
L 265.087513 195.155498 
L 269.048073 188.868503 
L 271.028354 184.755032 
L 271.820466 182.89138 
L 272.612578 180.685634 
L 273.40469 177.599091 
L 273.800746 188.286895 
L 274.196802 188.009794 
L 275.384971 184.343775 
L 276.177083 182.141857 
L 276.573139 186.65874 
L 277.365251 185.122799 
L 277.761307 184.26537 
L 279.345531 181.794865 
L 279.741588 181.042163 
L 280.137644 181.719807 
L 280.929756 180.398318 
L 281.721868 179.846969 
L 283.702148 176.758801 
L 285.286373 175.430031 
L 285.682429 174.729429 
L 286.078485 177.787069 
L 286.474541 209.336016 
L 286.870597 270.710415 
L 287.266653 274.378713 
L 287.662709 273.185948 
L 288.058765 295.102408 
L 288.454821 293.871794 
L 288.850877 310.723545 
L 290.435102 306.839135 
L 292.415382 302.704962 
L 293.999606 298.471654 
L 295.979887 293.35177 
L 297.960167 289.046713 
L 298.752279 287.011457 
L 300.336504 283.716231 
L 301.524672 282.021437 
L 302.316784 280.91966 
L 303.108896 279.548335 
L 308.653681 267.181514 
L 313.010298 256.444988 
L 316.178747 246.151314 
L 319.743251 233.23497 
L 320.139307 231.748893 
L 320.535364 233.383726 
L 321.327476 230.339648 
L 324.099868 221.662855 
L 326.080149 214.390823 
L 326.476205 219.342082 
L 327.664373 215.283687 
L 329.644653 208.61219 
L 330.832822 204.476755 
L 333.605214 194.274557 
L 337.565775 177.906497 
L 339.942111 167.887017 
L 345.486896 146.461982 
L 345.882953 205.685459 
L 346.279009 206.812605 
L 347.863233 199.912889 
L 348.259289 202.052836 
L 348.655345 207.607883 
L 349.051401 205.878748 
L 349.447457 205.686371 
L 350.239569 202.215394 
L 350.635625 205.552514 
L 352.21985 198.666638 
L 352.615906 199.891411 
L 353.804074 194.714587 
L 354.20013 194.59317 
L 354.596186 192.927827 
L 354.992242 193.125907 
L 355.784354 207.204363 
L 363.705476 174.986249 
L 364.893644 170.332133 
L 365.2897 179.205709 
L 366.873925 172.427733 
L 367.269981 171.831577 
L 369.250261 163.70163 
L 371.230542 156.556906 
L 372.41871 153.221676 
L 374.39899 148.120666 
L 375.191102 146.551258 
L 377.171383 143.038384 
L 381.131943 135.590391 
L 382.320112 132.821882 
L 384.300392 127.915187 
L 387.072785 122.765392 
L 388.260953 120.744888 
L 390.637289 116.068711 
L 392.221514 112.509976 
L 393.409682 109.797627 
L 394.201794 107.642832 
L 394.993906 106.098172 
L 397.370243 102.545666 
L 400.538691 98.081372 
L 401.330803 96.797263 
L 401.726859 97.300761 
L 402.122916 98.247345 
L 403.70714 95.814234 
L 404.103196 98.796575 
L 404.499252 105.771705 
L 404.895308 105.191375 
L 405.291364 107.40495 
L 405.68742 106.866918 
L 406.479532 111.428098 
L 409.647981 108.222711 
L 410.044037 108.301159 
L 410.440093 111.838569 
L 410.836149 111.563589 
L 412.024318 110.030659 
L 412.420374 112.940578 
L 413.212486 112.151089 
L 413.608542 111.979901 
L 415.588822 109.902775 
L 415.984878 127.854203 
L 416.77699 134.765263 
L 417.173047 145.907608 
L 417.569103 167.68292 
L 419.549383 166.716564 
L 424.698112 164.006235 
L 425.490224 163.872434 
L 425.88628 163.746605 
L 426.282336 163.443292 
L 426.678392 168.002601 
L 427.866561 167.38812 
L 428.658673 166.878538 
L 429.054729 169.469521 
L 429.450785 177.448513 
L 431.035009 176.373568 
L 431.431065 176.317356 
L 432.223177 176.969826 
L 432.619234 177.352329 
L 433.411346 178.695214 
L 434.99557 182.252803 
L 435.391626 180.384383 
L 438.164019 186.673627 
L 438.956131 188.874152 
L 439.352187 184.070464 
L 440.144299 186.192256 
L 441.332467 188.852352 
L 442.520635 191.326304 
L 442.916692 192.341336 
L 443.312748 189.763693 
L 444.896972 193.329032 
L 445.689084 194.835274 
L 447.273308 197.1339 
L 448.461477 199.076962 
L 449.253589 200.381251 
L 451.233869 202.830923 
L 454.798374 207.580399 
L 456.382598 209.247803 
L 457.17471 209.89492 
L 457.966823 210.437142 
L 459.154991 212.014136 
L 461.531327 215.305784 
L 462.323439 216.928388 
L 466.680056 224.534364 
L 467.868224 225.709799 
L 469.848505 229.336919 
L 480.938075 253.743573 
L 482.918355 258.84266 
L 483.314412 259.945294 
L 483.710468 239.76185 
L 484.106524 231.155514 
L 484.50258 226.283813 
L 485.690748 229.460251 
L 486.086804 230.202896 
L 486.48286 231.226123 
L 486.878916 231.096132 
L 487.274972 224.42553 
L 489.651309 230.669455 
L 490.047365 229.792894 
L 490.443421 221.441677 
L 490.839477 218.246556 
L 492.423701 224.648839 
L 492.819757 221.845422 
L 495.196094 231.673514 
L 495.59215 221.718474 
L 497.968486 232.433084 
L 498.364542 228.229959 
L 498.760599 230.072243 
L 499.552711 220.692877 
L 499.948767 218.56569 
L 500.740879 196.683672 
L 501.532991 200.147898 
L 501.929047 201.405397 
L 506.285664 219.870269 
L 506.68172 219.106166 
L 511.038337 238.674785 
L 511.434393 238.747401 
L 511.830449 234.852882 
L 512.226505 236.593898 
L 512.622561 234.79505 
L 513.018617 236.619765 
L 513.414673 235.870706 
L 513.810729 237.691614 
L 514.206786 224.306253 
L 514.602842 224.956616 
L 514.998898 220.64647 
L 515.394954 210.472508 
L 515.79101 189.693444 
L 516.187066 162.607257 
L 516.583122 158.162238 
L 519.355515 168.846484 
L 522.127907 177.598954 
L 524.9003 186.538981 
L 526.484524 191.900956 
L 526.88058 192.23099 
L 527.672692 188.565419 
L 528.068748 181.44301 
L 528.464804 183.053283 
L 528.86086 175.583879 
L 529.256917 176.766025 
L 529.652973 176.990356 
L 530.841141 180.932912 
L 531.237197 181.719892 
L 533.217477 188.398605 
L 534.009589 172.038028 
L 534.405646 156.886577 
L 534.801702 159.238746 
L 535.197758 160.674866 
L 535.593814 160.305928 
L 535.98987 149.736847 
L 537.97015 157.493118 
L 538.366206 157.934318 
L 538.762262 146.652003 
L 539.158318 112.545904 
L 539.554375 59.800776 
L 539.950431 57.148828 
L 540.346487 58.901638 
L 540.742543 41.921674 
L 541.138599 40.246545 
L 547.07944 62.835273 
L 549.455776 71.628505 
L 551.040001 77.544133 
L 553.812393 86.22698 
L 555.000562 90.220848 
L 556.980842 97.547297 
L 558.565066 102.750088 
L 559.753235 106.614454 
L 563.317739 118.896921 
L 566.882244 132.853963 
L 570.842805 148.635157 
L 573.615197 159.881752 
L 576.38759 171.536535 
L 576.783646 172.648429 
L 578.763926 180.695373 
L 579.952094 184.596631 
L 583.120543 193.970123 
L 584.704767 198.360102 
L 589.061384 210.771979 
L 591.437721 218.522592 
L 595.002225 230.588831 
L 596.58645 235.621976 
L 598.56673 241.549192 
L 602.131235 252.746133 
L 610.448412 284.338358 
L 611.636581 288.835297 
L 612.032637 282.535601 
L 612.428693 279.660804 
L 617.577422 300.727158 
L 617.973478 300.853236 
L 618.369534 298.480325 
L 620.349814 306.489611 
L 623.914319 320.583539 
L 624.310375 321.388885 
L 624.706431 323.117641 
L 625.102487 322.09296 
L 625.498543 312.907238 
L 626.290656 316.389239 
L 626.686712 314.447653 
L 627.082768 307.051791 
L 627.478824 306.437386 
L 627.87488 307.368388 
L 628.270936 277.068923 
L 628.666992 269.479656 
L 629.85516 274.506465 
L 630.251216 274.150688 
L 630.647272 271.526063 
L 631.043328 273.347355 
L 631.439385 273.261255 
L 631.835441 274.150973 
L 632.627553 277.55145 
L 633.023609 275.991586 
L 633.419665 277.739106 
L 633.815721 265.189148 
L 634.607833 258.17244 
L 635.003889 259.14703 
L 635.399945 243.4822 
L 635.796001 214.840094 
L 636.192058 216.542511 
L 636.588114 213.043235 
L 636.98417 214.768551 
L 637.380226 212.356901 
L 638.568394 217.5797 
L 638.96445 215.679955 
L 639.360506 212.00887 
L 639.756562 203.746092 
L 640.152618 185.694686 
L 642.132899 194.582804 
L 642.528955 190.464655 
L 643.321067 194.086945 
L 644.113179 176.151919 
L 644.509235 176.45473 
L 645.301347 179.903937 
L 645.697403 179.310287 
L 646.093459 180.635185 
L 646.489516 179.116039 
L 648.865852 187.907811 
L 649.261908 182.488632 
L 649.657964 180.722781 
L 658.767254 214.931729 
L 660.351478 219.988568 
L 662.331759 227.765463 
L 664.312039 236.035497 
L 664.708095 234.624461 
L 665.104151 235.832654 
L 665.500207 237.651705 
L 665.896263 220.962753 
L 666.292319 220.645345 
L 666.688375 222.424546 
L 667.084432 218.663438 
L 669.460768 229.104755 
L 669.856824 229.594466 
L 670.25288 227.489772 
L 671.044992 208.763319 
L 671.441048 190.733927 
L 672.233161 181.097197 
L 672.629217 166.620357 
L 673.025273 168.288087 
L 673.421329 157.506885 
L 676.985834 171.902055 
L 677.38189 163.797336 
L 677.777946 163.385795 
L 678.174002 137.08744 
L 678.966114 139.561317 
L 679.36217 139.969496 
L 681.738506 145.501617 
L 682.530619 146.917776 
L 684.114843 148.657408 
L 685.303011 149.792617 
L 685.699067 150.254781 
L 690.055684 157.760422 
L 691.243852 159.131223 
L 692.432021 160.507156 
L 693.620189 162.358921 
L 694.412301 163.145418 
L 695.204413 163.789174 
L 695.996525 164.615132 
L 696.788637 165.734615 
L 699.957086 172.074328 
L 703.125535 179.947558 
L 703.917647 182.210899 
L 705.105815 185.98562 
L 706.293983 189.214342 
L 710.254544 202.080058 
L 710.6506 201.999414 
L 711.046656 203.106169 
L 711.442712 202.745044 
L 711.838768 193.585567 
L 712.234824 187.784641 
L 722.136226 212.83768 
L 724.512563 219.347955 
L 725.700731 223.15483 
L 729.265236 235.249011 
L 731.245516 243.369531 
L 731.641572 230.20045 
L 732.037628 227.087104 
L 732.433684 228.732487 
L 732.82974 225.67768 
L 733.225797 225.037127 
L 734.413965 229.021012 
L 735.998189 233.939958 
L 736.394245 234.755532 
L 740.750862 247.701995 
L 741.93903 252.00184 
L 743.127198 257.208084 
L 744.711423 262.515697 
L 745.107479 254.633538 
L 749.860152 271.568526 
L 751.04832 275.380898 
L 754.216769 286.702793 
L 754.612825 288.249945 
L 755.008881 288.698184 
L 755.404937 285.930569 
L 755.800993 273.457926 
L 756.197049 273.18966 
L 756.593105 274.911034 
L 756.989161 271.33106 
L 757.385217 272.523584 
L 758.573386 277.455922 
L 758.969442 265.033929 
L 760.949722 272.996763 
L 763.722115 282.996058 
L 764.514227 286.015708 
L 765.702395 291.41711 
L 766.098451 292.498026 
L 766.494507 289.878476 
L 768.078731 296.603595 
L 768.474787 284.853692 
L 768.870844 284.486102 
L 769.2669 286.159334 
L 769.662956 266.914253 
L 770.059012 264.479979 
L 774.019573 279.063946 
L 774.415629 278.173707 
L 774.811685 274.866954 
L 775.603797 277.906827 
L 776.791965 281.857867 
L 777.980133 286.00234 
L 778.376189 277.672376 
L 778.772245 233.382927 
L 779.168302 232.273751 
L 779.564358 229.602703 
L 780.752526 233.192731 
L 781.544638 234.204812 
L 781.940694 234.384324 
L 782.33675 234.744715 
L 783.524918 235.08773 
L 783.920975 235.135641 
L 784.317031 234.877583 
L 784.713087 234.462584 
L 785.505199 233.358789 
L 786.297311 232.515661 
L 787.881535 231.968761 
L 788.277591 231.675487 
L 788.673647 231.232869 
L 789.069704 230.990631 
L 789.861816 230.737247 
L 791.842096 228.956639 
L 792.634208 228.576762 
L 793.822376 227.211497 
L 795.010545 225.143587 
L 795.406601 224.31727 
L 796.198713 223.435824 
L 799.763218 220.072912 
L 804.515891 217.382588 
L 805.308003 217.086797 
L 806.496171 217.180039 
L 807.288283 216.807616 
L 808.080395 215.971515 
L 810.060676 213.175462 
L 810.852788 211.802417 
L 812.040956 210.053757 
L 812.437012 209.24335 
L 812.833068 208.097193 
L 812.833068 208.097193 
" clip-path="url(#p89201456d1)" style="fill: none; stroke-dasharray: 10,3.75; stroke-dashoffset: 0; stroke: #bb9832; stroke-width: 2.5"/>
   </g>
   <g id="line2d_14"/>
   <g id="line2d_15"/>
   <g id="patch_3">
    <path d="M 40.583125 362.814442 
L 40.583125 23.391562 
" style="fill: none; stroke: #cccccc; stroke-width: 0.8; stroke-linejoin: miter; stroke-linecap: square"/>
   </g>
   <g id="patch_4">
    <path d="M 849.606875 362.814442 
L 849.606875 23.391562 
" style="fill: none; stroke: #cccccc; stroke-width: 0.8; stroke-linejoin: miter; stroke-linecap: square"/>
   </g>
   <g id="patch_5">
    <path d="M 40.583125 362.814442 
L 849.606875 362.814442 
" style="fill: none; stroke: #cccccc; stroke-width: 0.8; stroke-linejoin: miter; stroke-linecap: square"/>
   </g>
   <g id="patch_6">
    <path d="M 40.583125 23.391562 
L 849.606875 23.391562 
" style="fill: none; stroke: #cccccc; stroke-width: 0.8; stroke-linejoin: miter; stroke-linecap: square"/>
   </g>
   <g id="text_14">
    <!-- Performance Comparison: Stablecoins vs Uniform DCA -->
    <g style="fill: #262626" transform="translate(260.340937 17.391562) scale(0.14 -0.14)">
     <defs>
      <path id="Arial-BoldMT-50" d="M 466 0 
L 466 4581 
L 1950 4581 
Q 2794 4581 3050 4513 
Q 3444 4409 3709 4064 
Q 3975 3719 3975 3172 
Q 3975 2750 3822 2462 
Q 3669 2175 3433 2011 
Q 3197 1847 2953 1794 
Q 2622 1728 1994 1728 
L 1391 1728 
L 1391 0 
L 466 0 
z
M 1391 3806 
L 1391 2506 
L 1897 2506 
Q 2444 2506 2628 2578 
Q 2813 2650 2917 2803 
Q 3022 2956 3022 3159 
Q 3022 3409 2875 3571 
Q 2728 3734 2503 3775 
Q 2338 3806 1838 3806 
L 1391 3806 
z
" transform="scale(0.015625)"/>
      <path id="Arial-BoldMT-65" d="M 2381 1056 
L 3256 909 
Q 3088 428 2723 176 
Q 2359 -75 1813 -75 
Q 947 -75 531 491 
Q 203 944 203 1634 
Q 203 2459 634 2926 
Q 1066 3394 1725 3394 
Q 2466 3394 2894 2905 
Q 3322 2416 3303 1406 
L 1103 1406 
Q 1113 1016 1316 798 
Q 1519 581 1822 581 
Q 2028 581 2168 693 
Q 2309 806 2381 1056 
z
M 2431 1944 
Q 2422 2325 2234 2523 
Q 2047 2722 1778 2722 
Q 1491 2722 1303 2513 
Q 1116 2303 1119 1944 
L 2431 1944 
z
" transform="scale(0.015625)"/>
      <path id="Arial-BoldMT-72" d="M 1300 0 
L 422 0 
L 422 3319 
L 1238 3319 
L 1238 2847 
Q 1447 3181 1614 3287 
Q 1781 3394 1994 3394 
Q 2294 3394 2572 3228 
L 2300 2463 
Q 2078 2606 1888 2606 
Q 1703 2606 1575 2504 
Q 1447 2403 1373 2137 
Q 1300 1872 1300 1025 
L 1300 0 
z
" transform="scale(0.015625)"/>
      <path id="Arial-BoldMT-66" d="M 75 3319 
L 563 3319 
L 563 3569 
Q 563 3988 652 4194 
Q 741 4400 980 4529 
Q 1219 4659 1584 4659 
Q 1959 4659 2319 4547 
L 2200 3934 
Q 1991 3984 1797 3984 
Q 1606 3984 1523 3895 
Q 1441 3806 1441 3553 
L 1441 3319 
L 2097 3319 
L 2097 2628 
L 1441 2628 
L 1441 0 
L 563 0 
L 563 2628 
L 75 2628 
L 75 3319 
z
" transform="scale(0.015625)"/>
      <path id="Arial-BoldMT-6f" d="M 256 1706 
Q 256 2144 472 2553 
Q 688 2963 1083 3178 
Q 1478 3394 1966 3394 
Q 2719 3394 3200 2905 
Q 3681 2416 3681 1669 
Q 3681 916 3195 420 
Q 2709 -75 1972 -75 
Q 1516 -75 1102 131 
Q 688 338 472 736 
Q 256 1134 256 1706 
z
M 1156 1659 
Q 1156 1166 1390 903 
Q 1625 641 1969 641 
Q 2313 641 2545 903 
Q 2778 1166 2778 1666 
Q 2778 2153 2545 2415 
Q 2313 2678 1969 2678 
Q 1625 2678 1390 2415 
Q 1156 2153 1156 1659 
z
" transform="scale(0.015625)"/>
      <path id="Arial-BoldMT-6d" d="M 394 3319 
L 1203 3319 
L 1203 2866 
Q 1638 3394 2238 3394 
Q 2556 3394 2790 3262 
Q 3025 3131 3175 2866 
Q 3394 3131 3647 3262 
Q 3900 3394 4188 3394 
Q 4553 3394 4806 3245 
Q 5059 3097 5184 2809 
Q 5275 2597 5275 2122 
L 5275 0 
L 4397 0 
L 4397 1897 
Q 4397 2391 4306 2534 
Q 4184 2722 3931 2722 
Q 3747 2722 3584 2609 
Q 3422 2497 3350 2280 
Q 3278 2063 3278 1594 
L 3278 0 
L 2400 0 
L 2400 1819 
Q 2400 2303 2353 2443 
Q 2306 2584 2207 2653 
Q 2109 2722 1941 2722 
Q 1738 2722 1575 2612 
Q 1413 2503 1342 2297 
Q 1272 2091 1272 1613 
L 1272 0 
L 394 0 
L 394 3319 
z
" transform="scale(0.015625)"/>
      <path id="Arial-BoldMT-61" d="M 1116 2306 
L 319 2450 
Q 453 2931 781 3162 
Q 1109 3394 1756 3394 
Q 2344 3394 2631 3255 
Q 2919 3116 3036 2902 
Q 3153 2688 3153 2116 
L 3144 1091 
Q 3144 653 3186 445 
Q 3228 238 3344 0 
L 2475 0 
Q 2441 88 2391 259 
Q 2369 338 2359 363 
Q 2134 144 1878 34 
Q 1622 -75 1331 -75 
Q 819 -75 523 203 
Q 228 481 228 906 
Q 228 1188 362 1408 
Q 497 1628 739 1745 
Q 981 1863 1438 1950 
Q 2053 2066 2291 2166 
L 2291 2253 
Q 2291 2506 2166 2614 
Q 2041 2722 1694 2722 
Q 1459 2722 1328 2630 
Q 1197 2538 1116 2306 
z
M 2291 1594 
Q 2122 1538 1756 1459 
Q 1391 1381 1278 1306 
Q 1106 1184 1106 997 
Q 1106 813 1243 678 
Q 1381 544 1594 544 
Q 1831 544 2047 700 
Q 2206 819 2256 991 
Q 2291 1103 2291 1419 
L 2291 1594 
z
" transform="scale(0.015625)"/>
      <path id="Arial-BoldMT-6e" d="M 3478 0 
L 2600 0 
L 2600 1694 
Q 2600 2231 2544 2389 
Q 2488 2547 2361 2634 
Q 2234 2722 2056 2722 
Q 1828 2722 1647 2597 
Q 1466 2472 1398 2265 
Q 1331 2059 1331 1503 
L 1331 0 
L 453 0 
L 453 3319 
L 1269 3319 
L 1269 2831 
Q 1703 3394 2363 3394 
Q 2653 3394 2893 3289 
Q 3134 3184 3257 3021 
Q 3381 2859 3429 2653 
Q 3478 2447 3478 2063 
L 3478 0 
z
" transform="scale(0.015625)"/>
      <path id="Arial-BoldMT-63" d="M 3353 2338 
L 2488 2181 
Q 2444 2441 2289 2572 
Q 2134 2703 1888 2703 
Q 1559 2703 1364 2476 
Q 1169 2250 1169 1719 
Q 1169 1128 1367 884 
Q 1566 641 1900 641 
Q 2150 641 2309 783 
Q 2469 925 2534 1272 
L 3397 1125 
Q 3263 531 2881 228 
Q 2500 -75 1859 -75 
Q 1131 -75 698 384 
Q 266 844 266 1656 
Q 266 2478 700 2936 
Q 1134 3394 1875 3394 
Q 2481 3394 2839 3133 
Q 3197 2872 3353 2338 
z
" transform="scale(0.015625)"/>
      <path id="Arial-BoldMT-20" transform="scale(0.015625)"/>
      <path id="Arial-BoldMT-43" d="M 3397 1684 
L 4294 1400 
Q 4088 650 3608 286 
Q 3128 -78 2391 -78 
Q 1478 -78 890 545 
Q 303 1169 303 2250 
Q 303 3394 893 4026 
Q 1484 4659 2447 4659 
Q 3288 4659 3813 4163 
Q 4125 3869 4281 3319 
L 3366 3100 
Q 3284 3456 3026 3662 
Q 2769 3869 2400 3869 
Q 1891 3869 1573 3503 
Q 1256 3138 1256 2319 
Q 1256 1450 1568 1081 
Q 1881 713 2381 713 
Q 2750 713 3015 947 
Q 3281 1181 3397 1684 
z
" transform="scale(0.015625)"/>
      <path id="Arial-BoldMT-70" d="M 434 3319 
L 1253 3319 
L 1253 2831 
Q 1413 3081 1684 3237 
Q 1956 3394 2288 3394 
Q 2866 3394 3269 2941 
Q 3672 2488 3672 1678 
Q 3672 847 3265 386 
Q 2859 -75 2281 -75 
Q 2006 -75 1782 34 
Q 1559 144 1313 409 
L 1313 -1263 
L 434 -1263 
L 434 3319 
z
M 1303 1716 
Q 1303 1156 1525 889 
Q 1747 622 2066 622 
Q 2372 622 2575 867 
Q 2778 1113 2778 1672 
Q 2778 2194 2568 2447 
Q 2359 2700 2050 2700 
Q 1728 2700 1515 2451 
Q 1303 2203 1303 1716 
z
" transform="scale(0.015625)"/>
      <path id="Arial-BoldMT-69" d="M 459 3769 
L 459 4581 
L 1338 4581 
L 1338 3769 
L 459 3769 
z
M 459 0 
L 459 3319 
L 1338 3319 
L 1338 0 
L 459 0 
z
" transform="scale(0.015625)"/>
      <path id="Arial-BoldMT-73" d="M 150 947 
L 1031 1081 
Q 1088 825 1259 692 
Q 1431 559 1741 559 
Q 2081 559 2253 684 
Q 2369 772 2369 919 
Q 2369 1019 2306 1084 
Q 2241 1147 2013 1200 
Q 950 1434 666 1628 
Q 272 1897 272 2375 
Q 272 2806 612 3100 
Q 953 3394 1669 3394 
Q 2350 3394 2681 3172 
Q 3013 2950 3138 2516 
L 2309 2363 
Q 2256 2556 2107 2659 
Q 1959 2763 1684 2763 
Q 1338 2763 1188 2666 
Q 1088 2597 1088 2488 
Q 1088 2394 1175 2328 
Q 1294 2241 1995 2081 
Q 2697 1922 2975 1691 
Q 3250 1456 3250 1038 
Q 3250 581 2869 253 
Q 2488 -75 1741 -75 
Q 1063 -75 667 200 
Q 272 475 150 947 
z
" transform="scale(0.015625)"/>
      <path id="Arial-BoldMT-3a" d="M 628 2441 
L 628 3319 
L 1506 3319 
L 1506 2441 
L 628 2441 
z
M 628 0 
L 628 878 
L 1506 878 
L 1506 0 
L 628 0 
z
" transform="scale(0.015625)"/>
      <path id="Arial-BoldMT-53" d="M 231 1491 
L 1131 1578 
Q 1213 1125 1461 912 
Q 1709 700 2131 700 
Q 2578 700 2804 889 
Q 3031 1078 3031 1331 
Q 3031 1494 2936 1608 
Q 2841 1722 2603 1806 
Q 2441 1863 1863 2006 
Q 1119 2191 819 2459 
Q 397 2838 397 3381 
Q 397 3731 595 4036 
Q 794 4341 1167 4500 
Q 1541 4659 2069 4659 
Q 2931 4659 3367 4281 
Q 3803 3903 3825 3272 
L 2900 3231 
Q 2841 3584 2645 3739 
Q 2450 3894 2059 3894 
Q 1656 3894 1428 3728 
Q 1281 3622 1281 3444 
Q 1281 3281 1419 3166 
Q 1594 3019 2269 2859 
Q 2944 2700 3267 2529 
Q 3591 2359 3773 2064 
Q 3956 1769 3956 1334 
Q 3956 941 3737 597 
Q 3519 253 3119 86 
Q 2719 -81 2122 -81 
Q 1253 -81 787 320 
Q 322 722 231 1491 
z
" transform="scale(0.015625)"/>
      <path id="Arial-BoldMT-74" d="M 1981 3319 
L 1981 2619 
L 1381 2619 
L 1381 1281 
Q 1381 875 1398 808 
Q 1416 741 1477 697 
Q 1538 653 1625 653 
Q 1747 653 1978 738 
L 2053 56 
Q 1747 -75 1359 -75 
Q 1122 -75 931 4 
Q 741 84 652 211 
Q 563 338 528 553 
Q 500 706 500 1172 
L 500 2619 
L 97 2619 
L 97 3319 
L 500 3319 
L 500 3978 
L 1381 4491 
L 1381 3319 
L 1981 3319 
z
" transform="scale(0.015625)"/>
      <path id="Arial-BoldMT-62" d="M 422 0 
L 422 4581 
L 1300 4581 
L 1300 2931 
Q 1706 3394 2263 3394 
Q 2869 3394 3266 2955 
Q 3663 2516 3663 1694 
Q 3663 844 3258 384 
Q 2853 -75 2275 -75 
Q 1991 -75 1714 67 
Q 1438 209 1238 488 
L 1238 0 
L 422 0 
z
M 1294 1731 
Q 1294 1216 1456 969 
Q 1684 619 2063 619 
Q 2353 619 2558 867 
Q 2763 1116 2763 1650 
Q 2763 2219 2556 2470 
Q 2350 2722 2028 2722 
Q 1713 2722 1503 2476 
Q 1294 2231 1294 1731 
z
" transform="scale(0.015625)"/>
      <path id="Arial-BoldMT-6c" d="M 459 0 
L 459 4581 
L 1338 4581 
L 1338 0 
L 459 0 
z
" transform="scale(0.015625)"/>
      <path id="Arial-BoldMT-76" d="M 1372 0 
L 34 3319 
L 956 3319 
L 1581 1625 
L 1763 1059 
Q 1834 1275 1853 1344 
Q 1897 1484 1947 1625 
L 2578 3319 
L 3481 3319 
L 2163 0 
L 1372 0 
z
" transform="scale(0.015625)"/>
      <path id="Arial-BoldMT-55" d="M 459 4581 
L 1384 4581 
L 1384 2100 
Q 1384 1509 1419 1334 
Q 1478 1053 1701 883 
Q 1925 713 2313 713 
Q 2706 713 2906 873 
Q 3106 1034 3147 1268 
Q 3188 1503 3188 2047 
L 3188 4581 
L 4113 4581 
L 4113 2175 
Q 4113 1350 4038 1009 
Q 3963 669 3761 434 
Q 3559 200 3221 61 
Q 2884 -78 2341 -78 
Q 1684 -78 1345 73 
Q 1006 225 809 467 
Q 613 709 550 975 
Q 459 1369 459 2138 
L 459 4581 
z
" transform="scale(0.015625)"/>
      <path id="Arial-BoldMT-44" d="M 463 4581 
L 2153 4581 
Q 2725 4581 3025 4494 
Q 3428 4375 3715 4072 
Q 4003 3769 4153 3330 
Q 4303 2891 4303 2247 
Q 4303 1681 4163 1272 
Q 3991 772 3672 463 
Q 3431 228 3022 97 
Q 2716 0 2203 0 
L 463 0 
L 463 4581 
z
M 1388 3806 
L 1388 772 
L 2078 772 
Q 2466 772 2638 816 
Q 2863 872 3011 1006 
Q 3159 1141 3253 1448 
Q 3347 1756 3347 2288 
Q 3347 2819 3253 3103 
Q 3159 3388 2990 3547 
Q 2822 3706 2563 3763 
Q 2369 3806 1803 3806 
L 1388 3806 
z
" transform="scale(0.015625)"/>
      <path id="Arial-BoldMT-41" d="M 4597 0 
L 3591 0 
L 3191 1041 
L 1359 1041 
L 981 0 
L 0 0 
L 1784 4581 
L 2763 4581 
L 4597 0 
z
M 2894 1813 
L 2263 3513 
L 1644 1813 
L 2894 1813 
z
" transform="scale(0.015625)"/>
     </defs>
     <use xlink:href="#Arial-BoldMT-50"/>
     <use xlink:href="#Arial-BoldMT-65" transform="translate(66.699219 0)"/>
     <use xlink:href="#Arial-BoldMT-72" transform="translate(122.314453 0)"/>
     <use xlink:href="#Arial-BoldMT-66" transform="translate(161.230469 0)"/>
     <use xlink:href="#Arial-BoldMT-6f" transform="translate(194.53125 0)"/>
     <use xlink:href="#Arial-BoldMT-72" transform="translate(255.615234 0)"/>
     <use xlink:href="#Arial-BoldMT-6d" transform="translate(294.53125 0)"/>
     <use xlink:href="#Arial-BoldMT-61" transform="translate(383.447266 0)"/>
     <use xlink:href="#Arial-BoldMT-6e" transform="translate(439.0625 0)"/>
     <use xlink:href="#Arial-BoldMT-63" transform="translate(500.146484 0)"/>
     <use xlink:href="#Arial-BoldMT-65" transform="translate(555.761719 0)"/>
     <use xlink:href="#Arial-BoldMT-20" transform="translate(611.376953 0)"/>
     <use xlink:href="#Arial-BoldMT-43" transform="translate(639.160156 0)"/>
     <use xlink:href="#Arial-BoldMT-6f" transform="translate(711.376953 0)"/>
     <use xlink:href="#Arial-BoldMT-6d" transform="translate(772.460938 0)"/>
     <use xlink:href="#Arial-BoldMT-70" transform="translate(861.376953 0)"/>
     <use xlink:href="#Arial-BoldMT-61" transform="translate(922.460938 0)"/>
     <use xlink:href="#Arial-BoldMT-72" transform="translate(978.076172 0)"/>
     <use xlink:href="#Arial-BoldMT-69" transform="translate(1016.992188 0)"/>
     <use xlink:href="#Arial-BoldMT-73" transform="translate(1044.775391 0)"/>
     <use xlink:href="#Arial-BoldMT-6f" transform="translate(1100.390625 0)"/>
     <use xlink:href="#Arial-BoldMT-6e" transform="translate(1161.474609 0)"/>
     <use xlink:href="#Arial-BoldMT-3a" transform="translate(1222.558594 0)"/>
     <use xlink:href="#Arial-BoldMT-20" transform="translate(1255.859375 0)"/>
     <use xlink:href="#Arial-BoldMT-53" transform="translate(1283.642578 0)"/>
     <use xlink:href="#Arial-BoldMT-74" transform="translate(1350.341797 0)"/>
     <use xlink:href="#Arial-BoldMT-61" transform="translate(1383.642578 0)"/>
     <use xlink:href="#Arial-BoldMT-62" transform="translate(1439.257812 0)"/>
     <use xlink:href="#Arial-BoldMT-6c" transform="translate(1500.341797 0)"/>
     <use xlink:href="#Arial-BoldMT-65" transform="translate(1528.125 0)"/>
     <use xlink:href="#Arial-BoldMT-63" transform="translate(1583.740234 0)"/>
     <use xlink:href="#Arial-BoldMT-6f" transform="translate(1639.355469 0)"/>
     <use xlink:href="#Arial-BoldMT-69" transform="translate(1700.439453 0)"/>
     <use xlink:href="#Arial-BoldMT-6e" transform="translate(1728.222656 0)"/>
     <use xlink:href="#Arial-BoldMT-73" transform="translate(1789.306641 0)"/>
     <use xlink:href="#Arial-BoldMT-20" transform="translate(1844.921875 0)"/>
     <use xlink:href="#Arial-BoldMT-76" transform="translate(1872.705078 0)"/>
     <use xlink:href="#Arial-BoldMT-73" transform="translate(1928.320312 0)"/>
     <use xlink:href="#Arial-BoldMT-20" transform="translate(1983.935547 0)"/>
     <use xlink:href="#Arial-BoldMT-55" transform="translate(2011.71875 0)"/>
     <use xlink:href="#Arial-BoldMT-6e" transform="translate(2083.935547 0)"/>
     <use xlink:href="#Arial-BoldMT-69" transform="translate(2145.019531 0)"/>
     <use xlink:href="#Arial-BoldMT-66" transform="translate(2172.802734 0)"/>
     <use xlink:href="#Arial-BoldMT-6f" transform="translate(2206.103516 0)"/>
     <use xlink:href="#Arial-BoldMT-72" transform="translate(2267.1875 0)"/>
     <use xlink:href="#Arial-BoldMT-6d" transform="translate(2306.103516 0)"/>
     <use xlink:href="#Arial-BoldMT-20" transform="translate(2395.019531 0)"/>
     <use xlink:href="#Arial-BoldMT-44" transform="translate(2422.802734 0)"/>
     <use xlink:href="#Arial-BoldMT-43" transform="translate(2495.019531 0)"/>
     <use xlink:href="#Arial-BoldMT-41" transform="translate(2567.236328 0)"/>
    </g>
   </g>
   <g id="legend_1">
    <g id="patch_7">
     <path d="M 751.711563 74.066562 
L 842.606875 74.066562 
Q 844.606875 74.066562 844.606875 72.066562 
L 844.606875 30.391562 
Q 844.606875 28.391562 842.606875 28.391562 
L 751.711563 28.391562 
Q 749.711563 28.391562 749.711563 30.391562 
L 749.711563 72.066562 
Q 749.711563 74.066562 751.711563 74.066562 
z
" style="fill: #ffffff; opacity: 0.8; stroke: #cccccc; stroke-linejoin: miter"/>
    </g>
    <g id="text_15">
     <!-- Strategy -->
     <g style="fill: #262626" transform="translate(778.539688 39.67125) scale(0.1 -0.1)">
      <defs>
       <path id="ArialMT-67" d="M 319 -275 
L 866 -356 
Q 900 -609 1056 -725 
Q 1266 -881 1628 -881 
Q 2019 -881 2231 -725 
Q 2444 -569 2519 -288 
Q 2563 -116 2559 434 
Q 2191 0 1641 0 
Q 956 0 581 494 
Q 206 988 206 1678 
Q 206 2153 378 2554 
Q 550 2956 876 3175 
Q 1203 3394 1644 3394 
Q 2231 3394 2613 2919 
L 2613 3319 
L 3131 3319 
L 3131 450 
Q 3131 -325 2973 -648 
Q 2816 -972 2473 -1159 
Q 2131 -1347 1631 -1347 
Q 1038 -1347 672 -1080 
Q 306 -813 319 -275 
z
M 784 1719 
Q 784 1066 1043 766 
Q 1303 466 1694 466 
Q 2081 466 2343 764 
Q 2606 1063 2606 1700 
Q 2606 2309 2336 2618 
Q 2066 2928 1684 2928 
Q 1309 2928 1046 2623 
Q 784 2319 784 1719 
z
" transform="scale(0.015625)"/>
       <path id="ArialMT-79" d="M 397 -1278 
L 334 -750 
Q 519 -800 656 -800 
Q 844 -800 956 -737 
Q 1069 -675 1141 -563 
Q 1194 -478 1313 -144 
Q 1328 -97 1363 -6 
L 103 3319 
L 709 3319 
L 1400 1397 
Q 1534 1031 1641 628 
Q 1738 1016 1872 1384 
L 2581 3319 
L 3144 3319 
L 1881 -56 
Q 1678 -603 1566 -809 
Q 1416 -1088 1222 -1217 
Q 1028 -1347 759 -1347 
Q 597 -1347 397 -1278 
z
" transform="scale(0.015625)"/>
      </defs>
      <use xlink:href="#ArialMT-53"/>
      <use xlink:href="#ArialMT-74" transform="translate(66.699219 0)"/>
      <use xlink:href="#ArialMT-72" transform="translate(94.482422 0)"/>
      <use xlink:href="#ArialMT-61" transform="translate(127.783203 0)"/>
      <use xlink:href="#ArialMT-74" transform="translate(183.398438 0)"/>
      <use xlink:href="#ArialMT-65" transform="translate(211.181641 0)"/>
      <use xlink:href="#ArialMT-67" transform="translate(266.796875 0)"/>
      <use xlink:href="#ArialMT-79" transform="translate(322.412109 0)"/>
     </g>
    </g>
    <g id="line2d_16">
     <path d="M 753.711563 50.43375 
L 763.711563 50.43375 
L 773.711563 50.43375 
" style="fill: none; stroke: #f77189; stroke-width: 2.5; stroke-linecap: round"/>
    </g>
    <g id="text_16">
     <!-- Stablecoins -->
     <g style="fill: #262626" transform="translate(781.711563 53.93375) scale(0.1 -0.1)">
      <defs>
       <path id="ArialMT-62" d="M 941 0 
L 419 0 
L 419 4581 
L 981 4581 
L 981 2947 
Q 1338 3394 1891 3394 
Q 2197 3394 2470 3270 
Q 2744 3147 2920 2923 
Q 3097 2700 3197 2384 
Q 3297 2069 3297 1709 
Q 3297 856 2875 390 
Q 2453 -75 1863 -75 
Q 1275 -75 941 416 
L 941 0 
z
M 934 1684 
Q 934 1088 1097 822 
Q 1363 388 1816 388 
Q 2184 388 2453 708 
Q 2722 1028 2722 1663 
Q 2722 2313 2464 2622 
Q 2206 2931 1841 2931 
Q 1472 2931 1203 2611 
Q 934 2291 934 1684 
z
" transform="scale(0.015625)"/>
       <path id="ArialMT-73" d="M 197 991 
L 753 1078 
Q 800 744 1014 566 
Q 1228 388 1613 388 
Q 2000 388 2187 545 
Q 2375 703 2375 916 
Q 2375 1106 2209 1216 
Q 2094 1291 1634 1406 
Q 1016 1563 777 1677 
Q 538 1791 414 1992 
Q 291 2194 291 2438 
Q 291 2659 392 2848 
Q 494 3038 669 3163 
Q 800 3259 1026 3326 
Q 1253 3394 1513 3394 
Q 1903 3394 2198 3281 
Q 2494 3169 2634 2976 
Q 2775 2784 2828 2463 
L 2278 2388 
Q 2241 2644 2061 2787 
Q 1881 2931 1553 2931 
Q 1166 2931 1000 2803 
Q 834 2675 834 2503 
Q 834 2394 903 2306 
Q 972 2216 1119 2156 
Q 1203 2125 1616 2013 
Q 2213 1853 2448 1751 
Q 2684 1650 2818 1456 
Q 2953 1263 2953 975 
Q 2953 694 2789 445 
Q 2625 197 2315 61 
Q 2006 -75 1616 -75 
Q 969 -75 630 194 
Q 291 463 197 991 
z
" transform="scale(0.015625)"/>
      </defs>
      <use xlink:href="#ArialMT-53"/>
      <use xlink:href="#ArialMT-74" transform="translate(66.699219 0)"/>
      <use xlink:href="#ArialMT-61" transform="translate(94.482422 0)"/>
      <use xlink:href="#ArialMT-62" transform="translate(150.097656 0)"/>
      <use xlink:href="#ArialMT-6c" transform="translate(205.712891 0)"/>
      <use xlink:href="#ArialMT-65" transform="translate(227.929688 0)"/>
      <use xlink:href="#ArialMT-63" transform="translate(283.544922 0)"/>
      <use xlink:href="#ArialMT-6f" transform="translate(333.544922 0)"/>
      <use xlink:href="#ArialMT-69" transform="translate(389.160156 0)"/>
      <use xlink:href="#ArialMT-6e" transform="translate(411.376953 0)"/>
      <use xlink:href="#ArialMT-73" transform="translate(466.992188 0)"/>
     </g>
    </g>
    <g id="line2d_17">
     <path d="M 753.711563 64.579062 
L 763.711563 64.579062 
L 773.711563 64.579062 
" style="fill: none; stroke-dasharray: 10,3.75; stroke-dashoffset: 0; stroke: #bb9832; stroke-width: 2.5"/>
    </g>
    <g id="text_17">
     <!-- Uniform DCA -->
     <g style="fill: #262626" transform="translate(781.711563 68.079062) scale(0.1 -0.1)">
      <defs>
       <path id="ArialMT-55" d="M 3500 4581 
L 4106 4581 
L 4106 1934 
Q 4106 1244 3950 837 
Q 3794 431 3386 176 
Q 2978 -78 2316 -78 
Q 1672 -78 1262 144 
Q 853 366 678 786 
Q 503 1206 503 1934 
L 503 4581 
L 1109 4581 
L 1109 1938 
Q 1109 1341 1220 1058 
Q 1331 775 1601 622 
Q 1872 469 2263 469 
Q 2931 469 3215 772 
Q 3500 1075 3500 1938 
L 3500 4581 
z
" transform="scale(0.015625)"/>
       <path id="ArialMT-66" d="M 556 0 
L 556 2881 
L 59 2881 
L 59 3319 
L 556 3319 
L 556 3672 
Q 556 4006 616 4169 
Q 697 4388 901 4523 
Q 1106 4659 1475 4659 
Q 1713 4659 2000 4603 
L 1916 4113 
Q 1741 4144 1584 4144 
Q 1328 4144 1222 4034 
Q 1116 3925 1116 3625 
L 1116 3319 
L 1763 3319 
L 1763 2881 
L 1116 2881 
L 1116 0 
L 556 0 
z
" transform="scale(0.015625)"/>
       <path id="ArialMT-6d" d="M 422 0 
L 422 3319 
L 925 3319 
L 925 2853 
Q 1081 3097 1340 3245 
Q 1600 3394 1931 3394 
Q 2300 3394 2536 3241 
Q 2772 3088 2869 2813 
Q 3263 3394 3894 3394 
Q 4388 3394 4653 3120 
Q 4919 2847 4919 2278 
L 4919 0 
L 4359 0 
L 4359 2091 
Q 4359 2428 4304 2576 
Q 4250 2725 4106 2815 
Q 3963 2906 3769 2906 
Q 3419 2906 3187 2673 
Q 2956 2441 2956 1928 
L 2956 0 
L 2394 0 
L 2394 2156 
Q 2394 2531 2256 2718 
Q 2119 2906 1806 2906 
Q 1569 2906 1367 2781 
Q 1166 2656 1075 2415 
Q 984 2175 984 1722 
L 984 0 
L 422 0 
z
" transform="scale(0.015625)"/>
       <path id="ArialMT-43" d="M 3763 1606 
L 4369 1453 
Q 4178 706 3683 314 
Q 3188 -78 2472 -78 
Q 1731 -78 1267 223 
Q 803 525 561 1097 
Q 319 1669 319 2325 
Q 319 3041 592 3573 
Q 866 4106 1370 4382 
Q 1875 4659 2481 4659 
Q 3169 4659 3637 4309 
Q 4106 3959 4291 3325 
L 3694 3184 
Q 3534 3684 3231 3912 
Q 2928 4141 2469 4141 
Q 1941 4141 1586 3887 
Q 1231 3634 1087 3207 
Q 944 2781 944 2328 
Q 944 1744 1114 1308 
Q 1284 872 1643 656 
Q 2003 441 2422 441 
Q 2931 441 3284 734 
Q 3638 1028 3763 1606 
z
" transform="scale(0.015625)"/>
       <path id="ArialMT-41" d="M -9 0 
L 1750 4581 
L 2403 4581 
L 4278 0 
L 3588 0 
L 3053 1388 
L 1138 1388 
L 634 0 
L -9 0 
z
M 1313 1881 
L 2866 1881 
L 2388 3150 
Q 2169 3728 2063 4100 
Q 1975 3659 1816 3225 
L 1313 1881 
z
" transform="scale(0.015625)"/>
      </defs>
      <use xlink:href="#ArialMT-55"/>
      <use xlink:href="#ArialMT-6e" transform="translate(72.216797 0)"/>
      <use xlink:href="#ArialMT-69" transform="translate(127.832031 0)"/>
      <use xlink:href="#ArialMT-66" transform="translate(150.048828 0)"/>
      <use xlink:href="#ArialMT-6f" transform="translate(177.832031 0)"/>
      <use xlink:href="#ArialMT-72" transform="translate(233.447266 0)"/>
      <use xlink:href="#ArialMT-6d" transform="translate(266.748047 0)"/>
      <use xlink:href="#ArialMT-20" transform="translate(350.048828 0)"/>
      <use xlink:href="#ArialMT-44" transform="translate(377.832031 0)"/>
      <use xlink:href="#ArialMT-43" transform="translate(450.048828 0)"/>
      <use xlink:href="#ArialMT-41" transform="translate(522.265625 0)"/>
     </g>
    </g>
   </g>
  </g>
 </g>
 <defs>
  <clipPath id="p89201456d1">
   <rect x="40.583125" y="23.391562" width="809.02375" height="339.42288"/>
  </clipPath>
 </defs>
</svg>
